<svg version="1.1" xmlns="http://www.w3.org/2000/svg" xmlns:xlink="http://www.w3.org/1999/xlink" width="122.88391"
    height="104.8831" viewBox="0,0,122.88391,104.8831">
    <g transform="translate(-178.55726,-127.55302)">
        <g data-paper-data="{&quot;isPaintingLayer&quot;:true}" stroke="none" stroke-linecap="butt"
            stroke-linejoin="miter" stroke-miterlimit="10" stroke-dasharray="" stroke-dashoffset="0"
            style="mix-blend-mode: normal">
            <path d="" fill="#b5ac4e" fill-rule="nonzero" stroke-width="0" />
            <path d="M213.30826,132.45497l51.38091,30.9041l-28.68746,16.13597l-51.36096,-30.53367z"
                data-paper-data="{&quot;noHover&quot;:false,&quot;origItem&quot;:[&quot;Path&quot;,{&quot;applyMatrix&quot;:true,&quot;segments&quot;:[[369.38,297.94],[471.96,358.9],[529.28,326.7],[426.66,265]],&quot;closed&quot;:true,&quot;fillColor&quot;:[0,0,0,1]}]}"
                fill="#e4d962" fill-rule="nonzero" stroke-width="0.5" />
            <path
                d="M296.05,207.62c10.74,-6 3.56,-15.09 -5.27,-11.28l-74,33.52c10.15,8.39 49.57,-5.93 49.23,-11.41l30.07,-10.83zM179.89,146.46l32.34,-18.6c0.72283,-0.41635 1.61443,-0.4087 2.33,0.02l55.53,33.41c0.69878,0.42238 1.12124,1.18356 1.11,2v29c-0.0003,0.89039 -0.51448,1.70061 -1.32,2.08l-32.24,18.19c-0.73716,0.41827 -1.64505,0.39519 -2.36,-0.06l-0.28,-0.17l-0.12,-0.07l-55.21,-32.94c-0.7243,-0.43168 -1.15122,-1.22783 -1.11,-2.07l0.11,-28.77c0.01337,-0.83873 0.48037,-1.6043 1.22,-2zM243.01,159.46l2.1,1.24c0.95018,0.53379 1.84754,1.15659 2.68,1.86c0.37385,0.32799 0.51557,0.84762 0.36,1.32c-0.3767,0.75528 -0.97272,1.37918 -1.71,1.79c-0.6351,0.49316 -1.36284,0.85363 -2.14,1.06c-0.63091,0.05625 -1.26431,-0.076 -1.82,-0.38c0.43,0.44 0.62,0.81 0.58,1.1c-0.03593,0.24983 -0.1397,0.48504 -0.3,0.68c-0.50426,0.42995 -1.03533,0.82742 -1.59,1.19l-2.91,2l-2.63,-1.57l3.63,-2.57c0.6,-0.42 0.92,-0.7 1,-0.87c0.08,-0.17 -0.12,-0.35 -0.52,-0.58l-4.93,3.51l-2.87,-1.68l5.4,-3.93l5.67,-4.12zM244.01,162.63l-2.54,1.82c0.24946,0.16342 0.53371,0.26617 0.83,0.3c0.40565,-0.05889 0.78485,-0.23631 1.09,-0.51l0.63,-0.45c0.36,-0.26 0.53,-0.46 0.52,-0.62c-0.01,-0.16 -0.19,-0.33 -0.53,-0.54zM237.01,155.91l4.94,2.93c-0.77,0.56 -1.53,1.11 -2.28,1.67l-1.95,-1.16l-2.16,1.61c0.6,0.37 1.21,0.73 1.81,1.08l-2.05,1.52l-1.76,-1l-2.39,1.7l2.09,1.3l-2.12,1.56l-4.9,-2.93l5.26,-4l5.52,-4.19zM236.34,155.51l-2.23,1.7l-1.72,-1l-8.45,6.55c-0.94,-0.55 -1.87,-1.12 -2.81,-1.68l8.35,-6.59l-1.73,-1l2.16,-1.73l6.44,3.8zM229.73,151.59l-2.17,1.77l-1.71,-1l-8.22,6.66l-2.8,-1.67c2.64,-2.19 5.34,-4.42 8.1,-6.72l-1.72,-1c0.7,-0.58 1.4,-1.16 2.1,-1.76l6.41,3.8zM222.73,147.41l-6.86,5.78c-0.53361,0.49215 -1.0981,0.94976 -1.69,1.37c-0.42828,0.25152 -0.89965,0.42108 -1.39,0.5c-0.57766,0.11504 -1.17234,0.11504 -1.75,0c-0.61384,-0.13324 -1.20166,-0.36634 -1.74,-0.69c-0.55987,-0.30707 -1.04215,-0.73804 -1.41,-1.26c-0.27562,-0.39259 -0.39342,-0.87453 -0.33,-1.35c0.06133,-0.41479 0.24599,-0.80154 0.53,-1.11c0.29,-0.32 1,-1 2.07,-1.93l5.91,-5.22l2.91,1.73c-2.57,2.22 -5.07,4.4 -7.53,6.52c-0.27783,0.21394 -0.52364,0.4665 -0.73,0.75c-0.07,0.13 0,0.24 0.13,0.33c0.16031,0.095 0.35969,0.095 0.52,0c0.36185,-0.20952 0.69754,-0.46129 1,-0.75l7.44,-6.4c1,0.58 1.94,1.16 2.93,1.73zM208.27,138.89l2.89,1.72c0.69116,0.37317 1.32443,0.84475 1.88,1.4c0.33051,0.37762 0.46059,0.8905 0.35,1.38c-0.28015,0.77346 -0.78077,1.44791 -1.44,1.94c-0.41573,0.42504 -0.93679,0.73215 -1.51,0.89c-0.58113,0.06669 -1.16968,-0.01592 -1.71,-0.24c0.44197,0.32289 0.69636,0.8429 0.68,1.39c-0.17548,0.57781 -0.52463,1.08759 -1,1.46l-0.89,0.79c-0.48576,0.46952 -1.05126,0.84877 -1.67,1.12c-0.45071,0.16899 -0.94146,0.20032 -1.41,0.09c-0.83915,-0.29323 -1.6386,-0.6896 -2.38,-1.18l-3.18,-1.91l4.6,-4.32l4.83,-4.53zM209.48,142.17l-2.17,2l0.28,0.16c0.20256,0.14466 0.45738,0.19562 0.7,0.14c0.43596,-0.23911 0.83093,-0.54631 1.17,-0.91c0.22612,-0.17927 0.41615,-0.39985 0.56,-0.65c0.06644,-0.1108 0.06644,-0.2492 0,-0.36c-0.15832,-0.15604 -0.33653,-0.29053 -0.53,-0.4zM205.81,145.56l-2.64,2.4c0.26748,0.17789 0.57898,0.27827 0.9,0.29c0.33939,-0.10189 0.64397,-0.2957 0.88,-0.56l0.88,-0.8c0.41,-0.37 0.61,-0.63 0.6,-0.77c-0.01,-0.14 -0.22,-0.33 -0.62,-0.59zM184.69,148.97l51.29,30.48l28.66,-16.1l-51.31,-30.85zM266.62,166.84l-28.65,16.1v24.18l28.65,-16.23v-24zM233.95,206.38v-23.48l-50.72,-30.15l-0.09,23.31zM258.67,214.18l-32.53,14c6.3,5.21 34.45,-7.3 36.84,-9.32l-4.31,-4.71z"
                fill="#fff36d" fill-rule="evenodd" stroke-width="1" />
            <path d="M266.64903,166.84929l0.0192,24.05388l-28.72721,16.25758l-0.01915,-24.23431l28.7271,-16.12718z"
                data-paper-data="{&quot;noHover&quot;:false,&quot;origItem&quot;:[&quot;Path&quot;,{&quot;applyMatrix&quot;:true,&quot;segments&quot;:[[533.24,333.68],[475.94,365.88],[475.94,414.24],[533.24,381.78],[533.24,333.78]],&quot;closed&quot;:true,&quot;fillColor&quot;:[0,0,0,1]}]}"
                fill="#e4d962" fill-rule="nonzero" stroke-width="0.5" />
            <path d="M183.09047,176.05317l0.1052,-23.33953l50.8039,30.19287l-0.01519,23.50978z"
                data-paper-data="{&quot;noHover&quot;:false,&quot;origItem&quot;:[&quot;Path&quot;,{&quot;applyMatrix&quot;:true,&quot;segments&quot;:[[467.9,412.76],[467.9,365.8],[366.46,305.5],[366.28,352.12]],&quot;closed&quot;:true,&quot;fillColor&quot;:[0,0,0,1]}]}"
                fill="#e4d962" fill-rule="nonzero" stroke-width="0.5" />
        </g>
    </g>
</svg>