<svg id="salted_caramel" data-name="salted caramel" xmlns="http://www.w3.org/2000/svg" viewBox="0 0 812.79 667.56"><defs><style>.cls-1{fill:#fff;stroke:#fff;stroke-miterlimit:10;stroke-width:15px;}.cls-2{fill:#d68231;}</style></defs><title>saltedCaramel</title><path class="cls-1" d="M662,622c19.89,2.82,71.23-.31,80.51.62,27.22,2.71,54,15.78,65.17,12.66,18.59-5.23,17.76-14.54,30.91-36.69s21.83-35.14,38.77-60.2c19.78-29.29,32.43-49.6,35.35-87.41,2.3-29.7-9.64-48.67-21.85-72.43s-6.23-43.44-16.07-67.24-23.36-37.51-44.06-48.75c-14.71-8-41.35-18.2-69.32-26.6-6.41-10-12-18.54-22.09-21.74-3.81-1.2-17.82,0-27.64,5.34-35.38-12.77-82.24-32.12-98.94-39.17-18.73-7.91-45.19-13.16-61.76-7.43-18.58,6.43-36,24.14-42.57,41.12-8.17,21.17-13.78,44.73-43.49,87-4,5.66-30,31.51-32.93,35.9" transform="translate(-107.71 -163.03)"/><path class="cls-1" d="M701.31,414.52c-9.19-12.23-27.54-24.48-45.14-29.06s-68.09-19.13-88-25.25c-6.7-2.07-20.61-6.12-37.1-11-5-9.68-12.63-15.79-21-20.38-7.83-4.27-19.89,3.83-27.7,5.82-18.07-5.54-34.31-10.74-43.46-14.24-26-9.94-44.75-17.59-68.47-15.29s-51.63,18.74-66.93,25.62-41.32,17.6-60.44,27.55c-7.5,3.89-19,10.94-29.12,16.94-6.89-1-16.12-1.33-22.3,2.67-13,8.41-16.42,15.74-20.24,20.52-14.53,4.59-28.56,9.59-40.8,26-7.44,10-9.94,22.95-12.24,39.78s0,54.32,1.53,74.21-3.83,57.38-4.59,80.33,4.94,59.29,14.88,75.36,22.71,30.51,44.13,37.4,69.89,22.58,92.08,30.23,81.86,39,117.82,52.73,58.9,7.55,75.73,4.49c11-2,27.49-6.73,52.74-23.56,9.65-6.44,29.73-16.27,44.32-24.68,12.28-7.1,71.7-32.57,89.76-40.4,16.83-7.29,23-15.71,30.29-28.05,4.76-8,10.3-48.91,11.06-65s-1.14-29.06,1.15-52.78S708.19,491,712,467.31,710.49,426.76,701.31,414.52Z" transform="translate(-107.71 -163.03)"/><path class="cls-2" d="M846.82,353c-6.49-7.13-10.83-5.86-19.4-2.89S807,358,813.27,367,835,382.28,835,382.28s11.24.11,15.79.53,9.24-6.8,8-15.15-9.94-12.55-11.87-14.68" transform="translate(-107.71 -163.03)"/><path class="cls-2" d="M890.87,378.54c-12.23-23.77-6.23-43.44-16.07-67.24s-23.36-37.51-44.06-48.75c-14.71-8-41.35-18.2-69.32-26.6-6.41-10-12-18.54-22.09-21.74-3.81-1.2-17.82,0-27.64,5.34-35.38-12.77-82.24-32.12-98.94-39.17-18.73-7.91-45.19-13.16-61.76-7.43-18.58,6.43-36,24.14-42.57,41.12-8.17,21.17-13.78,44.73-43.49,87-4,5.66-7.39,10.5-10.3,14.88l63,22.1s25.84,7.46,51.2,14.71c5.79-14.35,10.41-34.95,5.65-54-6.73-26.93-13.47-64.33-11.59-68.44s7,28.8,15.71,49c6.93,16.1,16.2,28.44,27.3,37.39s24,12.19,49.75,18,38.41,9.84,53.48,18,28.09,14.34,38.14,16.46,23.82,3.9,38.7,8.36,33.74,19.4,54.38,31.58c11.39,6.72,23.28,14.87,29.36,17.84s9.85-2.34,15.15.62,8.28,15.35,9.07,23.28c.84,8.41,1,18.29-1.29,16.17s-2.15-5.56-7.68-16.17-12-13.82-21.83-20.56-41.8-26.18-57.51-33.81-35.24-9.27-55.36-12.71S721.12,377,697.92,362.4c-21.42-13.47-56.86-21.93-67.69-22.44s-31.51-3.08-38.9,5.61a93.13,93.13,0,0,0-8.06,11.34c9,2.57,17.28,4.91,23.39,6.61,58.26,16.22,61.19,13.16,93.5,37.4,15,11.21,28.93,30.48,23.94,56.86S707.83,527.26,703.16,552a464.28,464.28,0,0,0-7.26,66c19.89,2.82,37.32,3.64,46.61,4.56,27.22,2.71,54,15.78,65.17,12.66,18.59-5.23,17.76-14.54,30.91-36.69s21.83-35.14,38.77-60.2c19.78-29.29,32.43-49.6,35.35-87.41C915,421.27,903.08,402.31,890.87,378.54Zm-344-174.72c-8.23,7.48-18.51,21.6-25.24,29.73-5.19,6.27-12.06,14-11.61,11.41S522.5,225.69,526.7,217s10.12-19.53,16.77-24.73c9.33-7.28,25.79-11.4,32.89-9.16C584.39,185.69,556.09,195.39,546.82,203.82Zm78.54,94.25c-2.8,1.69-11.5-4.21-12.9-8.69-.48-1.52.84-7.85.84-7.85.28-1.68,3.65-8.14,9.82-4.21A19.84,19.84,0,0,1,631.81,288C632.66,290.21,631,294.7,625.36,298.07Zm16.75-50c-6,3.8-7.2-.89-17.59-3.34s-8.77-6.26-12.34-14.31-3.65-11.67,1.69-15.77,10.36-4.35,17.55-1.5c4.09,1.6,5.11,11.77,5.11,11.77a69.56,69.56,0,0,1,11.26-.1c4.79.4,4.42,4.75,4.21,10.59S648.07,244.32,642.11,248.11Zm37.64,65.07c-3.17,2.42-6,1.82-11.13,1.72s-9-9.14-9-9.14-3.21-2.36-8.36-6.44-3.55-4.11,1.33-9.26,9.24-7.83,16.07-2.1c3.37,2.83,2.79,6.5,6.3,7.42s6.86.56,6.6,6S682.91,310.76,679.75,313.19Zm14-56.42c-2.5-4.75-3.18-8,1.79-13.57s10-2.18,14.69-1.84c2.56.19,3.84-.39,5.11,1,.93,1,.61,4.44,2.39,2.25a26.61,26.61,0,0,1,2.18-2.11s-3.67-5.63-3.58-9.12,3.68-5.87,7.4-8A33.61,33.61,0,0,1,736,221.65c5.29-.32,11.4,9.55,14.42,14.54s.5,7.54-2.34,9.76a9.88,9.88,0,0,1-5.46,2.33,5.79,5.79,0,0,1-4.08-1.82s6.14,7.15,8.5,10.22,2.76,4.24.1,9-7,7.17-14.08,9.84-8.63,1.9-12.79-1.4-6.26-5.61-6.43-9.86c-.06-1.43.87-8,1.5-12.23-.6,1.93-2,5.16-2.65,5.63-2.74,2-7.37,4.84-11.25,5C695.54,263.06,696.3,261.51,693.79,256.77Zm44.27,82.8c-3.55.48-9.68-3.6-9.68-3.6a50.77,50.77,0,0,1-9.16,2.18,12.44,12.44,0,0,1-10.72-3.74c-3-2.93-6.15-6.3-6.94-10s4.68-6.57,12.05-9.62,9.9-3.66,17.36.7c0,0,8.89-.1,13.39,4.3s4.84,8.24,3.23,10.78S741.61,339.08,738.06,339.57Zm30.17,12c-4.12,3-9.35,6-13.47,2.62s-8.61-4.86-6.36-9.72,6.26-6.62,12-5.61C766.73,340,772.35,348.56,768.23,351.55Zm61.06-9.65c-3.34,5.46-8.09,5.52-14.18,6.95s-5.42.74-8.45-3.43.23-12.46.23-12.46-5.4,1.29-8.64.62c-2.76-.59-4.91-2.39-8.35-7.77s-1-8.27,4.88-12.81c3.27-2.52,7.38-7.21,9.46-8.72s6.11-.07,6.11-.07l-9.5-5.8s-6-.88-11.55-1.9-6.59-6.58-4.75-11.75,12.77-10.32,18.85-13.11,9-.37,13.07,3.66c0,0,9.71,18.88,7,23s-11.33,6-9.82,7,2.61,8.52,2.61,8.52-1.07,1.84,7.71,4.25c7.33,2,7.78,4.79,8.52,9.54S832.62,336.43,829.29,341.9Zm51.08,18.77c-1.57-.92-13.29-18-18.21-30.69s-9.35-30.13-8.23-32.78c1.26-3,4.18,12.08,12.52,25.79,6,9.88,4.93,11.06,6.6,18.22S881.34,361.24,880.38,360.67ZM808,624.16c-8.2-3.06-31.58-15.95-41.85-21.72s-30.85-8.26-32.79-11.59,20.9,3.1,36.7,4.84,20.79,5.66,30.58,14C811.94,619.34,812.18,625.7,808,624.16Z" transform="translate(-107.71 -163.03)"/><path class="cls-2" d="M701.31,414.52c-9.19-12.23-27.54-24.48-45.14-29.06s-68.09-19.13-88-25.25c-6.7-2.07-20.61-6.12-37.1-11-5-9.68-12.63-15.79-21-20.38-7.83-4.27-19.89,3.83-27.7,5.82-18.07-5.54-34.31-10.74-43.46-14.24-26-9.94-44.75-17.59-68.47-15.29s-51.63,18.74-66.93,25.62-41.32,17.6-60.44,27.55c-7.5,3.89-19,10.94-29.12,16.94-6.89-1-16.12-1.33-22.3,2.67-13,8.41-16.42,15.74-20.24,20.52-14.53,4.59-28.56,9.59-40.8,26-7.44,10-9.94,22.95-12.24,39.78s0,54.32,1.53,74.21-3.83,57.38-4.59,80.33,4.94,59.29,14.88,75.36,22.71,30.51,44.13,37.4,69.89,22.58,92.08,30.23,81.86,39,117.82,52.73,58.9,7.55,75.73,4.49c11-2,27.49-6.73,52.74-23.56,9.65-6.44,29.73-16.27,44.32-24.68,12.28-7.1,71.7-32.57,89.76-40.4,16.83-7.29,23-15.71,30.29-28.05,4.76-8,10.3-48.91,11.06-65s-1.14-29.06,1.15-52.78S708.19,491,712,467.31,710.49,426.76,701.31,414.52ZM467.43,355.29C472,353,476,357,476,357a30.49,30.49,0,0,1,3.44-8.42,15.88,15.88,0,0,1,10-7.84c3.44-.76,10.53-4,14.34-4.4s8,2.42,12.24,6.69c5.45,5.45,7.48,13.24,5.86,15.35-2.32,3-7.06,4.74-9,5.89s-9.69,3.29-15.43,2.53a80.73,80.73,0,0,0-13.18-.28s-6.86,7.55-13.75,8.69-9.44-2-9.82-5S462.85,357.59,467.43,355.29ZM452.21,478.07c1.92-3.07,8-10.72,12.25-11.86s10.55.16,10.55.16-1.21-10.69,3-17.58,10.3-7.85,18-7.85,13.76,5.79,17.57,14.59,2.56,11.82-2,15.65-9.19,8.8-14.16,9.18S484,475.78,484,475.78s-2.3,15.3-5.74,18-6,2.91-13.68,3.67-11.58-1-12.34-5.24S450.3,481.13,452.21,478.07ZM263.44,357.38c4.51-2.12,21.74-8.75,31.3-11.81a234.4,234.4,0,0,0,30.85-12.16c9.18-4.58,16.07-8.88,24.87-13.09s19.51-7.13,29.08-7.13c11.47,0,32.53,9.4,49.46,16.29,16.3,6.63,23.63,8.52,21.77,10.59-1,1.16-9,1.06-17,1,7.26,4.2,8.11,9.1,7.21,16.39-1.14,9.18-3.34,11.61-8.7,17.35-4.48,4.81-8.18,4.77-14.88,1.49-2.57.52-4.83.91-4.83.91s3.69,6.59,1.06,10.28a26.36,26.36,0,0,1-4,4.75l2.9,8.43s3.17-1.84,5.54-.79,5,5,5,5,2.38-1.32,7.65-5,7.39-.53,10.81,2.64,7.38,9,7.38,11.86-2.64,6.33-7.12,12.4-6.06,5.54-11.33,3.42-5.8-7.37-8.17-6.58-6.32-3.17-6.32-3.17a16.17,16.17,0,0,1-10.28,4.75c-6.59.52-5-2.64-6.32-5.8s0-11.6,0-11.6-5-1.32-6.32-3.43-1.32-6.85-3.17-6.85-8.17-2.9-8.17-2.9,2.11,7.91.27,11.6-5.54,5.53-11.6,9.22-8.7-1.05-12.66-5.27-4.75-5.54-3.43-10,4.21-7.12,9.49-7.91,7.65-1.06,7.65-1.06a13.1,13.1,0,0,1-4-3.32c-2.37-2.64-1.58-5.08,0-11.41s5.16-7.91,9.91-10.28,13.61-2.75,17.21-1.87a36.6,36.6,0,0,1,7,2.54s-.3-.76-.7-1.81c-3.67-3.27-6.1-5.9-6.1-5.9s1.38-12.25,3.29-16.45a14.88,14.88,0,0,1,1.85-3c-9.3-.82-18.8-1.61-24.08-1.22-6.4.47-20.08,4.34-34.11,8.14.65.78,1.24,1.57,1.75,2.33,7.08,10.47,7.11,14.76,4.82,17.82s-11.28,7.65-17,13-8.8,8.41-18,7.65-22.18-1.92-21.8-5.74,1-14.91,6-19.51a98.07,98.07,0,0,0,7.5-7.26c-15.68,2.69-31.06,4.64-36.52,5.25C261.67,360.92,253.29,362.17,263.44,357.38ZM423,446.74c-4.31,3.11-8.6,6.73-13.09,3.37s-4.49-6.35-.38-10.84,6.35-2.89,10.85-2.24C425.64,437.76,429.75,441.87,423,446.74ZM389.86,475.9c-1.71,5.13-5.12,8.2-7.51,8.89s-14,2.74-20.16,2.39-6.49-6.5-6.49-11.28c0-4.56,1.56-9.13,6.46-11,.23-.09,17.46-2.3,21.56.09S391.57,470.78,389.86,475.9ZM334,426.36c-5.61,3.74-9.72,4.11-15.33,3s-4.49-2.62-3.37-7.1,3.06-4.41,7.1-7.1c4.49-3,10.84-1.87,17.2,1.49S339.61,422.62,334,426.36Zm-32.12,4.28c-1.92,1.91-7.65,1.15-10.33-1.14s-8.8-3.45-14.91-5.36-5.36-5.36-2.67-8,6.92-7.91,11.85-9.56c2.3-.77,9.18-1.14,11.86-.77s6.89,8,7.65,13.39A13.81,13.81,0,0,1,301.88,430.64ZM540.55,751.28c-6.1,2.45-15,8-23.69,14.15-8.24,5.92-15.2,14.92-22.21,20.17-16.34,12.24-24.45,19.14-49.37,23.56-23.29,4.12-46.56-4.49-49.37-6.73s12.34,3.37,26.65-4.49c11.66-6.4,10.94-18.51,16.55-23.56,6.38-5.74,4.33,28.19,19.83,26.75,17.95-1.68,36.27-30.11,46.37-43,11.75-15,68.35-17.26,70.69-17.39S546.64,748.83,540.55,751.28Zm2.9-235.34c-18.36,6.32-37.15,15.85-56.66,26.18-18.46,9.77-34.84,5.91-44.34,23.33-11.66,21.37-9.76,15.73-14.25,17.42s-2.47-.49-14.25-19c-8.3-13-37.88-16.45-54.52-27.35s-24-12.52-52.73-29.73-60.48-23-90.32-32.15-47.95-13.17-58.54-6.38c-14.59,9.35-14.14,29.26-17.58,33.66C137,506.07,137,487.36,137,477a104.46,104.46,0,0,1,5.33-33.94c4-11.47,14.47-18.59,15.54-15.52,1,2.89-4,7.19-1.52,14.39s12.42,12,23.89,17.17,32.13,8,63.11,16.64,54.51,17.78,85.5,30.41,77.32,34.2,95.11,36.49,42.6-3.21,58.09-9.52,32.13-16.64,50.5-23.53,52.9-16.26,55.47-16.26C591.45,493.37,561.81,509.63,543.44,515.94Zm-16.07-52.21c1.72-5.17,3.28-8.31,10.33-7.46C552,458,553.2,464.87,547.46,470s-6.32,6.31-14.34,2.87S525.66,468.89,527.37,463.73Zm61.34-42.23c-1,1.61-2.21,4.13-7.69,8s-5.08,2.91-10.89,3.88-10.81-.82-15-2.43-11.51-3.62-12.1-8.06a34.2,34.2,0,0,1,.72-10.57s-14.28,2.18-16.53,2.82-6.78-1.29-11.93-3.23-4.85-4.85-4.2-7.74,2.26-9.68,5.81-12.59,7.65-5.8,12.58-5.8c3.23,0,10,3.54,12.58,7.74s5.08,14.68,5.08,14.68,6.23-3.77,9.77-7.65,7.88-2.52,12.72-1.87,10.18,5.43,13.09,9S589.68,419.88,588.71,421.49ZM690.9,487.82c-2.33,1.37-4.18-49.38-22.15-54.35-8.37-2.32-15.34,15-30.3,26.55-8.56,6.64-19.22,13-29.54,16.45s-19.18,4.27-9.81.83c6.14-2.26,14-6.58,25.51-16.91s18.59-23.18,23.19-31.78,4.22-19.23,9.36-20.95c8.61-2.87,23.56,10.1,31.42,25.06C697.67,450.05,694.77,485.55,690.9,487.82Z" transform="translate(-107.71 -163.03)"/></svg>