<svg version="1.1" xmlns="http://www.w3.org/2000/svg" xmlns:xlink="http://www.w3.org/1999/xlink" width="63.19341" height="51.98294" viewBox="0,0,63.19341,51.98294"><g transform="translate(-208.40329,-154.00853)"><g data-paper-data="{&quot;isPaintingLayer&quot;:true}" fill-rule="nonzero" stroke="none" stroke-linecap="butt" stroke-linejoin="miter" stroke-miterlimit="10" stroke-dasharray="" stroke-dashoffset="0" style="mix-blend-mode: normal"><g fill="none" stroke-width="1" font-family="sans-serif" font-weight="normal" font-size="12" text-anchor="start"/><g fill="none" stroke-width="1" font-family="sans-serif" font-weight="normal" font-size="12" text-anchor="start"/><g fill="none" stroke-width="1" font-family="sans-serif" font-weight="normal" font-size="12" text-anchor="start"/><g fill="none" stroke-width="1" font-family="sans-serif" font-weight="normal" font-size="12" text-anchor="start"/><g fill="none" stroke-width="1" font-family="sans-serif" font-weight="normal" font-size="12" text-anchor="start"/><g fill="none" stroke-width="1" font-family="sans-serif" font-weight="normal" font-size="12" text-anchor="start"/><g fill="none" stroke-width="1" font-family="sans-serif" font-weight="normal" font-size="12" text-anchor="start"/><g><g fill="#000000" stroke-width="1"><path d="M238.62097,188.41027c-0.50144,-0.65949 -0.75571,-1.53504 -0.75571,-2.6022v-2.6295c0,-1.05434 0.25113,-1.92183 0.74643,-2.57859c0.47961,-0.63574 1.14155,-0.94488 2.02392,-0.94488c0.88455,0 1.55742,0.312 2.05695,0.95402c0.51304,0.65908 0.77304,1.52357 0.77304,2.56931v2.6295c0,1.06649 -0.25714,1.94148 -0.76431,2.6007c-0.49298,0.64093 -1.16544,0.95252 -2.05586,0.95252c-0.87623,0 -1.53858,-0.31118 -2.02446,-0.95088z"/><path d="M271.59671,189.42189c0,6.20142 -5.04513,11.24682 -11.24655,11.24682h-40.70018c-6.20142,0 -11.24668,-5.04526 -11.24668,-11.24682c0,-5.34744 3.81746,-9.96182 8.99115,-11.01712c-0.15518,-0.7886 -0.23366,-1.59372 -0.23366,-2.40239c0,-6.82133 5.54944,-12.37077 12.37063,-12.37077c2.57545,0 5.10027,0.81386 7.1882,2.30467c2.71548,-4.09206 7.35594,-6.605 12.28437,-6.605c8.12543,0 14.73603,6.6106 14.73603,14.73617c0,1.51511 -0.22929,3.00469 -0.68256,4.43887c4.99217,1.22754 8.53925,5.70093 8.53925,10.91557zM232.38188,182.18279c0.02798,-1.67875 -0.50445,-3.02817 -1.58267,-4.01072c-1.06758,-0.97272 -2.55634,-1.46584 -4.42481,-1.46584c-1.78644,0 -3.26142,0.60476 -4.38414,1.79749c-1.11699,1.18673 -1.68325,2.7204 -1.68325,4.55815v2.87299c0,1.84663 0.58088,3.38166 1.72666,4.56198c1.14838,1.18359 2.65884,1.78357 4.48977,1.78357c1.81756,0 3.26565,-0.49257 4.30402,-1.46406c1.04629,-0.97886 1.5626,-2.31204 1.53463,-3.96281l-0.00082,-0.05241l-0.11424,-0.34271h-3.4005v0.34121c0,0.87009 -0.18998,1.52466 -0.56463,1.94503c-0.36468,0.40918 -0.95634,0.61664 -1.75832,0.61664c-0.80949,0 -1.43281,-0.30204 -1.90559,-0.92331c-0.48807,-0.6412 -0.73551,-1.48549 -0.73551,-2.50967v-2.89005c0,-1.01421 0.23571,-1.854 0.70071,-2.49629c0.4463,-0.61691 1.03222,-0.91676 1.79135,-0.91676c0.86244,0 1.49627,0.21796 1.88403,0.64775c0.3969,0.44016 0.59807,1.10074 0.59807,1.9636v0.34121h3.4106l0.11397,-0.34298zM247.05089,183.19086c0,-1.85277 -0.60094,-3.41264 -1.78616,-4.63636c-1.18836,-1.22658 -2.74592,-1.84854 -4.62926,-1.84854c-1.87133,0 -3.41428,0.62264 -4.58613,1.85031c-1.16762,1.2233 -1.75955,2.78263 -1.75955,4.63458v2.60466c0,1.85891 0.59398,3.42015 1.76528,4.64018c1.17485,1.22399 2.7193,1.84458 4.59036,1.84458c1.88375,0 3.43939,-0.62019 4.62421,-1.84349c1.18195,-1.2203 1.78125,-2.78181 1.78125,-4.64127zM259.81091,192.07145v-2.91912h-5.71403l2.09448,-2.28051c1.11439,-1.20761 1.92729,-2.20108 2.41631,-2.95324c0.51495,-0.79188 0.77591,-1.66893 0.77591,-2.60671c0,-1.38613 -0.46732,-2.51458 -1.389,-3.35382c-0.91253,-0.83078 -2.172,-1.2521 -3.74389,-1.2521c-1.59877,0 -2.89305,0.49079 -3.84666,1.45874c-0.95498,0.9689 -1.42107,2.16791 -1.38558,3.56346l0.00136,0.05118l0.11424,0.34107h3.41005v-0.34121c0,-0.67519 0.15204,-1.2158 0.45135,-1.60655c0.28252,-0.36837 0.69307,-0.54744 1.25524,-0.54744c0.50213,0 0.87377,0.15068 1.13623,0.46063c0.27679,0.32729 0.41136,0.74452 0.41136,1.27585c0,0.3984 -0.13021,0.84442 -0.38721,1.32553c-0.2716,0.50827 -0.74179,1.14742 -1.39009,1.89126l-4.77407,5.11856v2.37441h10.56385z"/></g><path d="M214.00853,157.29757l3.28904,-3.28904l48.69389,48.69389l-3.28904,3.28904z" fill="#cb0000" stroke-width="0"/></g></g></g></svg>