<svg version="1.1" xmlns="http://www.w3.org/2000/svg" xmlns:xlink="http://www.w3.org/1999/xlink" width="63.90761" height="101.04986" viewBox="0,0,63.90761,101.04986"><g transform="translate(-208.04533,-129.47802)"><g data-paper-data="{&quot;isPaintingLayer&quot;:true}" fill="#ff7f50" fill-rule="nonzero" stroke="#111111" stroke-width="0.5" stroke-linecap="butt" stroke-linejoin="miter" stroke-miterlimit="10" stroke-dasharray="" stroke-dashoffset="0" style="mix-blend-mode: normal"><path d="M208.88913,229.59854l-0.02618,-0.10728l-0.18829,-0.05363l-0.13235,-0.04147l-0.0695,-0.08797l-0.04344,-0.06596v-0.09899l0.02607,-0.10998l0.02607,-0.09897l0.09555,-0.10999l0.01739,-0.14298l-0.02607,-0.09902l-0.07818,-0.077l-0.08687,-0.099l-0.0695,-0.18703l-0.03474,-0.24208l0.03474,-0.16507l0.04344,-0.13206l0.07818,-0.13207l0.13901,-0.11007l0.19112,-0.16512l0.03474,-0.18715l-0.11294,-0.28626l-0.13031,-0.33035l0.15533,-0.39141l0.44919,-0.58449l0.00687,-0.25839l-0.25673,-0.74168l-0.07667,-0.43756l0.08687,-0.31984l0.09557,-0.20958l0.20849,-0.0662l0.37355,-0.17651l0.10425,-0.30896l-0.03474,-0.17655l-0.15638,-0.17657l-0.0695,-0.16556l-0.02605,-0.26492l0.17373,-0.24289l0.31936,-0.27704l0.55773,-0.1141l0.46075,-0.53653l-0.01737,-0.28725l-0.12164,-0.20993l-0.16081,-0.08855l-0.43259,-0.30023l-0.31603,-0.3316l-0.16296,-0.29883l0.02994,-0.28511l0.06081,-0.16588l0.07818,-0.11059l0.12671,-0.11457l0.16931,0.00668l0.18179,-0.24605l0.09555,-0.24337l-0.10405,-0.29064l-0.01642,-0.12366l0.25946,-0.38242l0.19112,-0.07748l0.13901,0.06642l0.09555,0.12173l0.06081,0.19921l0.10425,0.06638l0.18244,-0.05533l0.21211,-0.22312l0.09193,-0.19743l0.05213,-0.15496l0.09555,-0.0443l0.13031,0.05535l0.16505,0.18817l0.13901,0.05534l0.15636,-0.03321l0.13031,-0.07748l0.08687,-0.13283l0.03457,-0.20009l-0.01454,-0.4347l0.1937,-0.54461l0.32236,-0.40083l0.50504,-0.19016l0.6728,-0.94269l0.08161,-0.65702l0.20026,-0.18128l0.01094,-0.08926l-0.10835,-0.15994l-0.1441,-0.1492l-0.00707,-0.21653l0.07771,-0.18044l0.16953,-0.09024l0.32381,-0.02877l0.40395,-0.20183l0.28688,-0.25733l0.28415,-0.11118l0.12814,-0.10488l0.05651,-0.11736l0.00705,-0.13541l-0.03831,-0.09465l-0.0959,-0.49229l0.1942,-0.37509l-0.01598,-0.29537l0.2668,-0.50401l0.16248,-0.03615l0.05651,-0.02713l0.04946,-0.0723l-0.0049,-0.07362l-0.06207,-0.21026l0.09631,-0.33292l0.04367,-0.51106l0.51207,-0.69219l0.93227,-0.25328l0.27707,-0.15934l0.22507,-0.32656l0.0562,-0.47486l0.39144,-0.65524l-0.04752,-0.37362l0.04669,-0.51655l-0.59656,-0.98275l0.10963,-0.21016l-0.08157,-0.55241l-0.47682,-0.2677l-0.05556,-0.09411l0.11647,-0.30519l0.06354,-0.48461l0.31845,-0.31342l0.17079,-0.38621l0.12857,-0.7771l-0.3352,-0.43606l-0.94549,-0.42004l-0.01545,-0.31947l0.18244,-0.44377l-0.10324,-0.36518l0.04723,-0.57909l-0.46061,-0.55756l-0.23518,-0.07l-0.09675,-0.07791l-0.06048,-0.10908l-0.01208,-0.15585l-0.03629,-0.10907l-0.12094,-0.03117l-0.09677,-0.06236l-0.03627,-0.06234l-0.0121,-0.09352v-0.09352l0.01218,-0.10995l-0.21109,-0.24613l-0.0551,-0.40792l0.10758,-0.54511l0.38032,-0.20141l0.62323,-0.5755l0.22435,-0.33236l0.04785,-0.18199l-0.08918,-0.36393l-0.08467,-0.26546l-0.19271,-0.09685l-0.23349,-0.34188l-0.08728,-0.52807l0.24217,-0.35421l-0.00777,-0.07735l-0.04747,-0.336l0.21908,-0.52388l0.20824,-0.16305l0.46344,-0.00363l0.20115,-0.311l0.2395,0.12569l0.00564,-2.2244v-0.02698l-0.0026,-0.29445l-0.0023,-0.42015l-0.00031,-0.0791l-0.00076,-0.19423l0.0007,-0.36579l-0.00126,-0.09581l-0.00529,-0.78871l0.0005,-0.47499l-0.00134,-0.45613l-0.00691,-2.06394l-0.00153,0.0006l-0.00502,-0.47203l-0.00703,-2.94273l0.00015,-0.36544l0.00004,-0.19356l-0.00167,-0.17709l-0.00165,-1.82065l0.00873,-2.22102l-0.00027,-0.09939l0.00207,-0.06775l0.00273,-0.24695l0.00409,-0.26071l0.00085,-0.05716l-0.00041,-0.28961v-0.0024l0.01447,-3.07272l-0.00383,-0.28544l0.0062,-0.09511l0.00593,-0.55754l0.00591,-0.55212l0.01619,-1.4767l-0.0012,-0.01611l0.06284,-5.3749l0.00504,-0.34337l0.00091,-0.03816l0.00244,-0.36706l0.00046,-1.109l0.00116,-0.00759l0.00316,-5.14323l0.0067,-3.00335l-0.00639,-0.64907l0.00292,-0.02344l-0.0092,-0.34815l0.00819,-0.03517l-0.00136,-0.41847l-0.00428,-2.52426l-0.00079,-0.00608l-0.00337,-0.36585l-0.0037,-2.48273l0.00021,-0.46724l0.00008,-0.24595l0.00006,-0.12181l-0.0005,-0.14121l0.00114,-0.01651l0.0018,-0.0971l-0.00389,-3.45858l0.00705,-1.4863l0.02041,-0.64612l-0.00529,-1.87916l-0.00093,-0.42629l0.01416,-1.54159l-0.00196,-0.76331l0.00775,-0.10611l-0.00002,-1.53293l-0.00194,-0.25649l0.00194,-0.06478l-0.00391,-1.4698l-0.00194,-0.2853l0.01743,-0.14785l0.06778,-0.04151l0.10266,0.14786l0.08134,0.19972l0.11038,0.12967l0.67007,0.48489l0.42504,-0.28449l0.5458,-0.19607l0.41268,0.3565l-0.65462,0.74159l0.06319,0.07715l0.12394,0.08293l0.55969,0.14511l0.56354,0.19948l0.79595,0.1684l0.71074,0.02072l0.17816,0.06476l0.3273,-0.01554l0.79159,-0.10414l0.63924,-0.13723l0.52338,-0.19726l-0.00308,-0.21039l0.67681,-0.12743l0.10676,0.11924l1.05135,-0.41843l0.73871,-0.33225l1.80214,-0.9071l0.4977,-0.44884l0.65264,-0.28548l0.97993,-0.57887h0.02324h0.37184h0.05517h0.01687l0.00186,-0.00029l1.01699,0.00737l0.0305,-0.00039l2.03989,0.00906l0.02212,-0.00099l2.33795,0.00582l0.33977,-0.00275l4.57568,-0.01698l0.76351,0.00496h0.16422l1.738,-0.01495l0.04617,0.00083l0.00775,-0.00042l1.62736,0.00166l0.96296,0.01462l0.31609,0.0026h0.00153l1.66692,0.01109l0.26779,0.0021l0.05725,-0.00062l1.56239,0.00815l0.31613,-0.00249l0.47582,0.00148l0.00924,-0.00003l0.49301,0.00016l1.42911,-0.00047l0.05916,-0.00057l0.28989,-0.00101l0.14964,0.00184l0.04607,0.00114l0.27685,-0.00374l0.0148,0.00296l1.7293,-0.01127l0.04439,0.00418l1.61681,-0.00862l0.09524,-0.00057l0.93769,-0.00439l0.56081,-0.00086l0.37862,-0.00192l0.24196,-0.00003l0.19344,-0.00296l0.1893,0.00179l0.12135,0.00171l0.35606,0.00498l0.01476,-0.00366l0.01423,-0.00228l0.76264,0.00415l0.701,0.0027l0.47266,0.00304l0.9514,-0.00325l0.113,0.00112l1.50725,-0.0074l0.03135,0.00478l1.25904,0.01129l0.02425,-0.00418l0.19344,-0.00065l0.01359,0.00296l0.54952,-0.00657l2.07771,-0.00776l0.12245,-0.00179l0.25156,-0.00408l-0.00486,0.44391l0.00116,0.14306l0.00017,0.12182l0.00045,0.32085l0.00046,0.33879l-0.00124,0.29559l-0.00248,0.55853l0.0104,1.09397l-0.00045,0.02446l-0.00225,0.47558l0.02097,2.14356v0.0036l0.00345,0.76886l0.00182,0.31388l0.01042,1.36168l-0.00072,0.24287l-0.00114,0.37376l-0.0006,0.08505l-0.00168,0.00178l0.00401,1.04109l0.00668,2.49807l0.00002,0.00353l0.0017,0.47431l0.00039,2.0245l-0.00236,0.01765l0.00351,0.22006l-0.00711,0.62059l0.01057,0.49123l-0.00271,0.82531l0.00118,2.5699l0.00732,1.71375l0.01481,3.11821l-0.00713,0.89735l0.00527,0.59353l0.00285,0.36125l-0.0012,0.24431l0.00168,0.41199l-0.00064,0.28278l-0.00058,0.05315l-0.00122,0.37151l0.00052,0.36964l0.00112,0.39409l-0.00252,1.85307l-0.00422,1.12572l-0.00124,0.66832l-0.02674,0.99924l-0.01115,1.29786l0.00746,1.49261l0.00391,1.08548l-0.00351,0.19343l-0.02961,2.00079l-0.01061,0.6508l-0.0032,0.1437l-0.00014,0.0019l-0.00811,0.30734l-0.02953,1.29478l-0.00027,0.05088l-0.00777,0.50146l-0.01997,1.47519l-0.00701,0.37222l-0.02155,0.98318l-0.019,1.71785l-0.00318,0.14081l-0.00105,0.12241l-0.00556,0.63948l-0.00172,0.01906l-0.00509,0.45103l-0.00802,0.49695l-0.00165,0.06276l-0.00242,0.1917l-0.00056,0.00288l-0.00174,0.41077l-0.00114,0.05421l-0.00633,0.26245l0.00114,0.07094l-0.00172,0.2935l0.00058,0.32518l-0.00019,0.03236l0.00116,1.48656l-0.00777,1.16107l-0.00172,0.28318l0.00573,0.33609l-0.0074,0.67801l-0.00873,1.52062l0.00389,0.02763v0.02512l-0.00387,0.45715l-0.00387,0.65537l-0.00387,0.2736v0.00251l-0.00385,0.8432l-0.0329,2.14629l-0.03678,2.06106l-0.00192,0.10767l-0.00331,0.83977l-0.00021,0.24351l-0.00438,0.27103l0.00112,0.08032l-0.00023,0.08682l-0.0067,0.42777l0.00691,1.7394l-0.00354,0.21307l-0.00333,1.08846l-0.11792,0.03269l-0.09588,0.05615l-0.16108,0.16539l-0.1948,0.17536l-0.21525,0.25258l-0.5458,0.29345l-0.09683,0.09752l-0.06761,0.1269l0.00374,0.12397l0.05597,0.0707l0.10101,0.21823l0.12024,0.16926l0.24571,0.2114l0.2558,0.34953l0.12791,0.2063l0.0176,0.05799l0.04553,0.09006l0.14067,0.14998l0.05248,0.0805l0.07063,0.16286l0.05527,0.16501l0.01476,0.13732l-0.05345,0.19739l-0.04925,0.08714l-0.57266,0.5744l-0.11674,0.14096l-0.13562,0.2209l-0.02916,0.10556l0.00873,0.06747l0.03463,0.10923l0.13372,0.21469l0.04543,0.03125l0.13593,0.0368l0.58653,0.0099l0.22075,0.04447l0.12253,0.00839l0.24205,0.10107l0.2344,0.18267l0.03364,0.03752l0.0227,0.04431l0.01268,0.12734l-0.02363,0.14487l-0.04847,0.12861l-0.05229,0.09334l-0.05252,0.06924l-0.18461,0.17569l-0.26961,0.18159l-0.11995,0.10502l-0.07988,0.10658l-0.04783,0.10633l0.00139,0.12994l0.05399,0.1683l0.20512,0.33089l0.04971,0.12701l0.04442,0.18494l-0.00207,0.08937l-0.02179,0.07657l-0.03416,0.03973l-0.13047,0.03421l-0.14207,-0.00241l-0.13475,-0.02686l-0.23715,-0.09483l-0.17402,-0.05262l-0.60063,-0.11002l-0.11641,0.02355l-0.15384,0.07702l-0.25873,0.16194l-0.34361,0.16314l-0.15675,0.047l-0.12729,0.00879l-0.28838,-0.06861l-0.31349,-0.03093l-0.2185,0.02228l-0.1149,0.04042l-0.07766,0.0507l-0.22896,0.19878l-0.56482,0.28682l-0.13612,0.10713l-0.23814,0.14653l-0.22588,0.08395l-0.086,0.05142l-0.11253,0.10072l-0.36375,0.21446l-0.04551,0.03666l-0.07099,0.09167l0.00149,0.02087l-0.27993,0.2372l-0.22642,0.2198l-0.10905,0.07958l-0.15843,0.09283l-0.18004,0.0788l-0.31702,0.10344l-0.08877,-0.00801l-0.19687,0.01975l-0.06253,-0.00846l-0.27098,-0.09284l-0.16959,-0.09314l-0.15235,-0.13675l-0.09563,-0.11164l-0.24407,-0.42287l-0.07299,-0.09286l-0.07884,-0.13867l-0.23899,-0.14729l-0.17028,-0.05326l-0.15134,-0.03161l-0.2667,-0.03074l-0.32579,0.01889l-0.47946,0.12275l-0.19648,0.06981l-0.2096,0.05598l-0.23338,0.02882l-0.16378,-0.00246l-0.54606,-0.13416l-0.20226,-0.02731l-0.1105,0.02006l-0.10438,0.0357l-0.23324,0.13354l-0.07167,0.07571l-0.08724,0.16271l-0.12764,0.16088l-0.06298,0.09977l-0.07462,0.33979l-0.01958,0.16177l0.00962,0.10088l0.01927,0.0739l0.20665,0.29784l0.11761,0.26697l0.01944,0.25842l-0.03331,0.40989l0.00207,0.54477l0.01466,0.12349l0.02223,0.09122l0.02471,0.08504l0.31541,0.61278l0.07866,0.24769l0.01063,0.20164l-0.00635,0.22472l-0.03335,0.13811l-0.11145,0.22732l-0.05248,0.07058l-0.14232,0.11922l-0.16633,0.09215l-0.32478,0.14333l-0.07789,0.0445l-0.08081,0.05747l-0.10709,0.09902l-0.04131,0.05457l-0.06422,0.14239l-0.0349,0.09371l-0.03435,0.15239l-0.03197,0.06613l-0.16509,0.2721l-0.14416,0.15979l-0.35,0.17029l-0.19801,0.07585l-0.18161,0.05458l-0.32461,0.05448l-0.42508,0.01454l-0.24215,0.06917l-0.3113,0.20773l-0.07351,0.0692l-0.24966,0.40024l0.00372,0.0348l-0.0251,0.1139l-0.16143,0.36535l-0.05763,0.16408l-0.09884,0.3787l-0.0093,0.08735l0.00992,0.26398l-0.01487,0.11539l-0.14377,0.45752l-0.14408,0.39028l-0.12115,0.19037l-0.17044,0.21915l-0.12237,0.22704l-0.16546,0.14431l-1.0687,0.64398l-0.11844,0.05417l-0.11813,-0.01727l-0.19559,-0.11593l-0.10653,-0.12581l0.01549,-0.04931l-0.00387,-0.01974l-0.14331,-0.14063l-0.14718,-0.05675l-0.20528,-0.00247l-0.04841,0.01727l-0.03873,0.02961l-0.12588,0.04194l-0.26339,0.04934l-0.14718,0.05921l-0.10845,0.09374l-0.10651,0.21461l-0.06197,0.26391l0.00194,0.15287l-0.03292,0.2811l-0.11232,0.23422l-0.11565,0.17456l-0.3317,0.27656l-0.22658,0.21195l-0.2808,0.36716l-0.05616,0.10348l-0.21496,0.56904l-0.01356,0.51959l0.08327,0.71391l0.01162,0.2658l-0.03097,0.34696l-0.13556,0.31491l-0.04803,0.16973l-0.02603,0.11374l-0.02696,0.18771l-0.02293,0.32301l-0.03501,0.21991l-0.01983,0.08497l-0.05854,0.1284l-0.09328,0.12648l-0.08521,0.09557l-0.09389,0.08534l-0.23208,0.13132l-0.13231,0.02438l-0.34333,0.02595l-0.39804,0.0857l-0.24294,0.03794l-0.22325,0.0593l-0.17146,0.08542l-0.0573,0.06241l-0.04927,0.12988l-0.00517,0.08811l0.03666,0.26646l-0.01877,0.14152l-0.03211,0.07168l-0.04212,0.05779l-0.08068,0.03272l-0.05527,-0.00589l-0.06294,-0.02729l-0.10562,-0.10321l-0.15142,-0.1905l-0.06058,-0.10544l-0.1314,-0.28456l-0.06335,-0.151l0.01811,-0.0517l-0.02736,-0.03684l-0.08988,-0.09584l-0.14507,-0.10516l-0.15959,-0.09347l-0.23994,-0.11026l-0.19466,-0.04579l-0.1813,-0.01799l-0.2613,0.0133l-0.50829,0.13743l-0.09443,-0.00101l-0.13163,-0.03412l-0.2313,-0.1261l-0.3004,-0.13368l-0.2698,-0.14863l-0.09969,-0.13173l-0.14598,-0.14814l-0.32757,-0.16045l-0.21885,-0.16946l-0.1088,-0.10831l-0.00811,-0.01304l-0.1215,-0.24075l-0.09946,-0.53779l0.00124,-0.22653l0.14395,-0.77787l-0.01121,-0.1911l-0.30929,-0.49684l-0.31725,-0.24192l-0.25144,-0.12403l-0.30348,-0.24712l-0.28905,-0.30614l-0.2448,-0.0846l-0.25997,0.13415l-0.08424,0.18497l0.01389,0.35638l0.11027,0.17725l0.35081,0.1134l0.53612,0.12959l0.09038,0.1699l-0.0422,0.20649l-0.09576,0.15154l-0.13066,0.08949l-0.33543,0.01928l-0.44266,-0.05342l-0.0862,0.03336l-0.1441,0.11428l-0.17427,0.41458l-0.10531,0.05889l-0.06613,-0.00997l-0.26516,-0.2927l-0.25154,-0.20747l-0.34944,-0.02713l-0.1418,0.06627l-0.11877,0.12931l-0.05486,0.11916l-0.00263,0.18843l0.04568,0.13792l0.09805,0.11746l0.47928,0.23723l0.07659,0.1999l-0.05225,0.28209l-0.10549,0.16591l-0.27027,0.24437l-0.38172,0.10506l-0.16442,0.01574l-0.38069,-0.0044l-0.22675,0.03219l-0.10707,0.04461l-0.04096,0.03425l-0.04688,0.07165l-0.06089,0.25688l0.01131,0.22789l-0.00525,0.14048l-0.01966,0.1413l-0.00335,0.21529l0.01851,0.40669l-0.00554,0.33426l0.02601,0.14883l0.06445,0.18988l0.03734,0.06484l0.11594,0.11906l0.06193,0.10947l0.04545,0.14863l0.00819,0.14044l-0.02345,0.0464l-0.06147,0.06651l-0.15948,0.09714l-0.17505,0.08703l-0.11381,0.03955l-0.12716,0.00334l-0.15076,-0.02384l-0.34372,-0.1061l-0.2724,-0.02408l-0.12045,0.02111l-0.03949,0.02764l-0.1461,0.16864l-0.04506,0.08159l-0.02703,0.10336l-0.0048,0.13587l0.03767,0.40895l-0.00321,0.10141l-0.02078,0.13904l0.03707,0.08035l0.00302,0.03228l-0.01526,0.0682l-0.12619,0.22347l-0.0879,0.07025l-0.1172,0.06257l-0.20427,0.13712l-0.16476,0.0839l-0.07735,0.02764l-0.18907,0.03171l-0.08691,-0.00517l-0.05384,-0.02138l-0.05755,-0.04012l-0.06524,-0.1366l-0.01662,-0.1775l0.02444,-0.14251l0.05537,-0.16227l0.18682,-0.40875l0.07694,-0.21521l0.01385,-0.08334l-0.00201,-0.10219l-0.02653,-0.10217l-0.03037,-0.05135l-0.05821,-0.04897l-0.20917,-0.05997l-0.23529,-0.04526l-0.15281,-0.00263l-0.09849,0.04728l-0.11579,0.11181l-0.3064,0.24941l-0.16116,0.10538l-0.04501,0.02331l-0.0733,0.01166l-0.17842,-0.04152l-0.06309,-0.05514l-0.31512,-0.40021l-0.27236,-0.48159l-0.2893,-0.58966l-0.15591,-0.40083l-0.04944,-0.17743l-0.08498,-0.21917l-0.30846,-0.20071l-0.08432,-0.04244l-0.09303,-0.01266l-0.06623,0.01113l-0.226,0.12752l-0.26853,0.09166l-0.13407,0.06703l-0.14087,0.11786l-0.07189,0.07865l-0.06685,0.09871l-0.10624,0.1107l-0.10581,0.07976l-0.07016,0.07738l-0.13794,0.2074l-0.20003,0.23989l-0.09137,0.07706l-0.23622,0.15615l-0.16302,0.04194l-0.10864,0.00042l-0.21837,0.0345l-0.39026,0.02824l-0.08248,-0.01164l-0.19197,0.06526l-0.47144,0.19162l-0.13583,0.06695l-0.44791,0.32094l-0.17052,0.20375l-0.05523,0.11083l-0.022,0.09592l0.00664,0.05624l0.03389,0.08708l0.01427,0.10023l0.00693,0.12l-0.01559,0.10434l-0.10469,0.27109l-0.04245,0.14874l-0.07653,0.45084l-0.0471,0.19223l-0.14625,0.41617l-0.04741,0.10824l-0.05608,0.10118l-0.12921,0.14038l-0.25625,0.20588l-0.1794,0.07763l-0.21754,0.05214l-0.15678,-0.00823l-0.16081,-0.05371l-0.04059,-0.03842l-0.06817,-0.13723l-0.0843,-0.369l-0.08614,-0.21846l-0.2234,-0.39737l-0.10442,-0.13454l-0.06664,-0.05611l-0.04927,-0.0259l-0.11557,-0.02707l-0.17878,0.02315l-0.42947,-0.05925l-0.19707,-0.05964l-0.16515,-0.07139l-0.66436,-0.44622l-0.14873,-0.13542l-0.13479,-0.17194l-0.08676,-0.07577l-0.54135,-0.38043l-0.34301,-0.17906l-0.22714,-0.06166l-0.04648,0.00118l-0.02386,0.01571l-0.18467,-0.08834l-0.14875,-0.12175l-0.04059,-0.05224l-0.06941,-0.05617l-0.06476,-0.01139l-0.03842,-0.03299l-0.16858,-0.18855l-0.00744,-0.01296l0.01301,-0.02828l-0.00775,-0.00825l-0.15121,-0.08721l-0.405,-0.13827l-0.02851,-0.02554l-0.30894,-0.06129l-0.19242,-0.00118l-0.16147,0.0152l-0.21161,0.04334l-0.05175,0.02397l-0.29157,0.19057l-0.40345,0.33075l-0.0787,0.0868l-0.2076,0.18459l-0.12301,0.05969l-0.07777,0.00746l-0.17013,-0.15198l-0.21783,-0.09033l-0.27827,-0.15633l-0.10411,-0.06756l-0.15618,-0.14063l-0.12642,-0.16657l-0.04896,-0.08093l-0.07034,-0.15323l-0.04371,-0.18115l0.01689,-0.19158l-0.02518,-0.12528l-0.06197,-0.09335l-0.06197,-0.04668l-0.09297,-0.04913l-0.07553,-0.01474l-0.06003,0.00491l-0.07359,0.02457l-0.09102,0.0565l-0.04648,0.08844l-0.02711,0.09334v0.09088l0.03292,0.06141l-0.05229,0.22841l-0.08908,0.12377l-0.16794,0.14891l-0.11867,0.12513l-0.06476,0.16519l0.01053,0.12923l0.04183,0.1304l0.05732,0.13235l0.05856,0.09386l0.22838,0.19949l0.12611,0.07539l0.0939,0.08167l0.10721,0.1276l0.06112,0.45151l-0.00587,0.19151l-0.05374,0.1065l-0.29233,0.44078l-0.11284,0.11841l-0.05757,0.04575l-0.1862,0.07103l-0.20899,0.05056l-0.19466,0.02736l-0.18035,-0.00338l-0.21982,-0.03477l-0.11377,-0.04099l-0.06083,-0.06387l-0.07068,-0.11252l-0.02907,-0.10542l-0.02345,-0.14199l0.00517,-0.23317l0.12071,-0.246l0.04288,-0.06049l0.08341,-0.07568l0.05236,-0.06499l0.04016,-0.07434l0.02481,-0.10484l-0.00087,-0.10131l-0.04183,-0.19474l-0.0282,-0.05576l-0.09636,-0.0911l-0.08275,-0.05969l-0.08924,-0.03299l-0.07127,-0.0055l-0.08366,0.02513l-0.24356,0.12762l-0.18901,0.08285l-0.14129,0.03259l-0.10969,0.01256l-0.18717,-0.05615l-0.13262,-0.00746l-0.42821,0.09188l-0.16933,0.11398l-0.03894,0.04213l-0.20582,0.16648l-0.05353,0.02951l-0.08701,0.02066l-0.08298,0.01082l-0.24842,0.00201l-0.43699,-0.03251l-0.064,-0.01982l-0.0817,-0.05999l-0.05986,-0.06271l-0.00817,-0.0262l-0.00151,-0.10531l-0.05806,-0.10706l-0.01741,-0.02707l-0.22567,-0.18401l-0.02895,-0.05228l-0.08442,-0.22284l-0.04766,-0.0785l-0.13521,-0.14589l-0.09267,-0.07451l-0.11612,-0.05411l-0.1772,-0.04154l-0.10827,0.01021l-0.13027,0.06437l-0.32835,0.41748l-0.11668,0.17085l-0.08443,0.08845l-0.09015,0.11615l-0.03062,0.0438l-0.033,0.07685l-0.01491,0.1063l-0.00352,0.10231l0.01968,0.10118l0.03635,0.10777l0.03679,0.06658l0.17284,0.22636l0.24035,0.22297l0.08939,0.1521l0.04847,0.14235l0.07686,0.48666l-0.01532,0.12835l-0.0429,0.12016l-0.08283,0.06044l-0.15591,0.07427l-0.16277,0.05581l-0.09704,0.0534l-0.04613,0.06009l0.00461,0.08315l-0.02252,0.05205l-0.053,0.04384l-0.11441,0.31015l-0.0379,0.04359l-0.04127,0.02776l-0.07739,0.01475l-0.14408,-0.03628l-0.19815,-0.21152l-0.02988,-0.06841l-0.08877,-0.08224l-0.15433,-0.09302l-0.0542,-0.00985l-0.07768,-0.04526l-0.0374,-0.04183l-0.07752,-0.04696l-0.14726,-0.06061l-0.20214,-0.04375l-0.11381,0.01277z"/></g></g></svg>