<svg version="1.1" xmlns="http://www.w3.org/2000/svg" xmlns:xlink="http://www.w3.org/1999/xlink" width="944.275" height="489.88472" viewBox="0,0,944.275,489.88472"><g transform="translate(206.775,87.19445)"><g data-paper-data="{&quot;isPaintingLayer&quot;:true}" fill-rule="nonzero" stroke-linejoin="miter" stroke-miterlimit="10" stroke-dasharray="" stroke-dashoffset="0" style="mix-blend-mode: normal"><path d="M-142.5,402.69028v-268h880v268z" fill="#e2e2e2" stroke="#404040" stroke-width="0" stroke-linecap="butt"/><path d="M63.64584,139.94445v-19h44v19z" fill="#efefef" stroke="#404040" stroke-width="0.5" stroke-linecap="butt"/><path d="M107.8125,139.94445v-19h44v19z" fill="#efefef" stroke="#404040" stroke-width="0.5" stroke-linecap="butt"/><path d="M151.8125,139.94445v-19h44v19z" fill="#efefef" stroke="#404040" stroke-width="0.5" stroke-linecap="butt"/><path d="M195.97917,139.94445v-19h44v19z" fill="#efefef" stroke="#404040" stroke-width="0.5" stroke-linecap="butt"/><path d="M63.64584,121.05556v-19h44v19z" fill="#efefef" stroke="#404040" stroke-width="0.5" stroke-linecap="butt"/><path d="M107.8125,121.05556v-19h44v19z" fill="#efefef" stroke="#404040" stroke-width="0.5" stroke-linecap="butt"/><path d="M151.8125,121.05556v-19h44v19z" fill="#efefef" stroke="#404040" stroke-width="0.5" stroke-linecap="butt"/><path d="M195.97917,121.05556v-19h44v19z" fill="#efefef" stroke="#404040" stroke-width="0.5" stroke-linecap="butt"/><path d="M240.02084,139.94445v-19h44v19z" fill="#efefef" stroke="#404040" stroke-width="0.5" stroke-linecap="butt"/><path d="M284.1875,139.94445v-19h44v19z" fill="#efefef" stroke="#404040" stroke-width="0.5" stroke-linecap="butt"/><path d="M328.1875,139.94445v-19h44v19z" fill="#efefef" stroke="#404040" stroke-width="0.5" stroke-linecap="butt"/><path d="M372.35417,139.94445v-19h44v19z" fill="#efefef" stroke="#404040" stroke-width="0.5" stroke-linecap="butt"/><path d="M240.02084,121.05556v-19h44v19z" fill="#efefef" stroke="#404040" stroke-width="0.5" stroke-linecap="butt"/><path d="M284.1875,121.05556v-19h44v19z" fill="#efefef" stroke="#404040" stroke-width="0.5" stroke-linecap="butt"/><path d="M328.1875,121.05556v-19h44v19z" fill="#efefef" stroke="#404040" stroke-width="0.5" stroke-linecap="butt"/><path d="M372.35417,121.05556v-19h44v19z" fill="#efefef" stroke="#404040" stroke-width="0.5" stroke-linecap="butt"/><path d="M63.64584,102.14445v-19h44v19z" fill="#efefef" stroke="#404040" stroke-width="0.5" stroke-linecap="butt"/><path d="M107.8125,102.14445v-19h44v19z" fill="#efefef" stroke="#404040" stroke-width="0.5" stroke-linecap="butt"/><path d="M151.8125,102.14445v-19h44v19z" fill="#efefef" stroke="#404040" stroke-width="0.5" stroke-linecap="butt"/><path d="M195.97917,102.14445v-19h44v19z" fill="#efefef" stroke="#404040" stroke-width="0.5" stroke-linecap="butt"/><path d="M63.64584,83.25556v-19h44v19z" fill="#efefef" stroke="#404040" stroke-width="0.5" stroke-linecap="butt"/><path d="M107.8125,83.25556v-19h44v19z" fill="#efefef" stroke="#404040" stroke-width="0.5" stroke-linecap="butt"/><path d="M151.8125,83.25556v-19h44v19z" fill="#efefef" stroke="#404040" stroke-width="0.5" stroke-linecap="butt"/><path d="M195.97917,83.25556v-19h44v19z" fill="#efefef" stroke="#404040" stroke-width="0.5" stroke-linecap="butt"/><path d="M240.02084,102.14445v-19h44v19z" fill="#efefef" stroke="#404040" stroke-width="0.5" stroke-linecap="butt"/><path d="M284.1875,102.14445v-19h44v19z" fill="#efefef" stroke="#404040" stroke-width="0.5" stroke-linecap="butt"/><path d="M328.1875,102.14445v-19h44v19z" fill="#efefef" stroke="#404040" stroke-width="0.5" stroke-linecap="butt"/><path d="M372.35417,102.14445v-19h44v19z" fill="#efefef" stroke="#404040" stroke-width="0.5" stroke-linecap="butt"/><path d="M240.02084,83.25556v-19h44v19z" fill="#efefef" stroke="#404040" stroke-width="0.5" stroke-linecap="butt"/><path d="M284.1875,83.25556v-19h44v19z" fill="#efefef" stroke="#404040" stroke-width="0.5" stroke-linecap="butt"/><path d="M328.1875,83.25556v-19h44v19z" fill="#efefef" stroke="#404040" stroke-width="0.5" stroke-linecap="butt"/><path d="M372.35417,83.25556v-19h44v19z" fill="#efefef" stroke="#404040" stroke-width="0.5" stroke-linecap="butt"/><path d="M63.64584,64.34444v-19h44v19z" fill="#efefef" stroke="#404040" stroke-width="0.5" stroke-linecap="butt"/><path d="M107.8125,64.34444v-19h44v19z" fill="#efefef" stroke="#404040" stroke-width="0.5" stroke-linecap="butt"/><path d="M151.8125,64.34444v-19h44v19z" fill="#efefef" stroke="#404040" stroke-width="0.5" stroke-linecap="butt"/><path d="M195.97917,64.34444v-19h44v19z" fill="#efefef" stroke="#404040" stroke-width="0.5" stroke-linecap="butt"/><path d="M63.64584,45.45556v-19h44v19z" fill="#efefef" stroke="#404040" stroke-width="0.5" stroke-linecap="butt"/><path d="M107.8125,45.45556v-19h44v19z" fill="#efefef" stroke="#404040" stroke-width="0.5" stroke-linecap="butt"/><path d="M151.8125,45.45556v-19h44v19z" fill="#efefef" stroke="#404040" stroke-width="0.5" stroke-linecap="butt"/><path d="M195.97917,45.45556v-19h44v19z" fill="#efefef" stroke="#404040" stroke-width="0.5" stroke-linecap="butt"/><path d="M240.02084,64.34444v-19h44v19z" fill="#efefef" stroke="#404040" stroke-width="0.5" stroke-linecap="butt"/><path d="M284.1875,64.34444v-19h44v19z" fill="#efefef" stroke="#404040" stroke-width="0.5" stroke-linecap="butt"/><path d="M328.1875,64.34444v-19h44v19z" fill="#efefef" stroke="#404040" stroke-width="0.5" stroke-linecap="butt"/><path d="M372.35417,64.34444v-19h44v19z" fill="#efefef" stroke="#404040" stroke-width="0.5" stroke-linecap="butt"/><path d="M240.02084,45.45556v-19h44v19z" fill="#efefef" stroke="#404040" stroke-width="0.5" stroke-linecap="butt"/><path d="M284.1875,45.45556v-19h44v19z" fill="#efefef" stroke="#404040" stroke-width="0.5" stroke-linecap="butt"/><path d="M328.1875,45.45556v-19h44v19z" fill="#efefef" stroke="#404040" stroke-width="0.5" stroke-linecap="butt"/><path d="M372.35417,45.45556v-19h44v19z" fill="#efefef" stroke="#404040" stroke-width="0.5" stroke-linecap="butt"/><path d="M63.64584,26.54445v-19h44v19z" fill="#efefef" stroke="#404040" stroke-width="0.5" stroke-linecap="butt"/><path d="M107.8125,26.54445v-19h44v19z" fill="#efefef" stroke="#404040" stroke-width="0.5" stroke-linecap="butt"/><path d="M151.8125,26.54445v-19h44v19z" fill="#efefef" stroke="#404040" stroke-width="0.5" stroke-linecap="butt"/><path d="M195.97917,26.54445v-19h44v19z" fill="#efefef" stroke="#404040" stroke-width="0.5" stroke-linecap="butt"/><path d="M63.64584,7.65556v-19h44v19z" fill="#efefef" stroke="#404040" stroke-width="0.5" stroke-linecap="butt"/><path d="M107.8125,7.65556v-19h44v19z" fill="#efefef" stroke="#404040" stroke-width="0.5" stroke-linecap="butt"/><path d="M151.8125,7.65556v-19h44v19z" fill="#efefef" stroke="#404040" stroke-width="0.5" stroke-linecap="butt"/><path d="M195.97917,7.65556v-19h44v19z" fill="#efefef" stroke="#404040" stroke-width="0.5" stroke-linecap="butt"/><path d="M240.02084,26.54445v-19h44v19z" fill="#efefef" stroke="#404040" stroke-width="0.5" stroke-linecap="butt"/><path d="M284.1875,26.54445v-19h44v19z" fill="#efefef" stroke="#404040" stroke-width="0.5" stroke-linecap="butt"/><path d="M328.1875,26.54445v-19h44v19z" fill="#efefef" stroke="#404040" stroke-width="0.5" stroke-linecap="butt"/><path d="M372.35417,26.54445v-19h44v19z" fill="#efefef" stroke="#404040" stroke-width="0.5" stroke-linecap="butt"/><path d="M240.02084,7.65556v-19h44v19z" fill="#efefef" stroke="#404040" stroke-width="0.5" stroke-linecap="butt"/><path d="M284.1875,7.65556v-19h44v19z" fill="#efefef" stroke="#404040" stroke-width="0.5" stroke-linecap="butt"/><path d="M328.1875,7.65556v-19h44v19z" fill="#efefef" stroke="#404040" stroke-width="0.5" stroke-linecap="butt"/><path d="M372.35417,7.65556v-19h44v19z" fill="#efefef" stroke="#404040" stroke-width="0.5" stroke-linecap="butt"/><path d="M63.64584,-11.25555v-19h44v19z" fill="#efefef" stroke="#404040" stroke-width="0.5" stroke-linecap="butt"/><path d="M107.8125,-11.25555v-19h44v19z" fill="#efefef" stroke="#404040" stroke-width="0.5" stroke-linecap="butt"/><path d="M151.8125,-11.25555v-19h44v19z" fill="#efefef" stroke="#404040" stroke-width="0.5" stroke-linecap="butt"/><path d="M195.97917,-11.25555v-19h44v19z" fill="#efefef" stroke="#404040" stroke-width="0.5" stroke-linecap="butt"/><path d="M63.64584,-30.14444v-19h44v19z" fill="#efefef" stroke="#404040" stroke-width="0.5" stroke-linecap="butt"/><path d="M107.8125,-30.14444v-19h44v19z" fill="#efefef" stroke="#404040" stroke-width="0.5" stroke-linecap="butt"/><path d="M151.8125,-30.14444v-19h44v19z" fill="#efefef" stroke="#404040" stroke-width="0.5" stroke-linecap="butt"/><path d="M195.97917,-30.14444v-19h44v19z" fill="#efefef" stroke="#404040" stroke-width="0.5" stroke-linecap="butt"/><path d="M240.02084,-11.25555v-19h44v19z" fill="#efefef" stroke="#404040" stroke-width="0.5" stroke-linecap="butt"/><path d="M284.1875,-11.25555v-19h44v19z" fill="#efefef" stroke="#404040" stroke-width="0.5" stroke-linecap="butt"/><path d="M328.1875,-11.25555v-19h44v19z" fill="#efefef" stroke="#404040" stroke-width="0.5" stroke-linecap="butt"/><path d="M372.35417,-11.25555v-19h44v19z" fill="#efefef" stroke="#404040" stroke-width="0.5" stroke-linecap="butt"/><path d="M240.02084,-30.14444v-19h44v19z" fill="#efefef" stroke="#404040" stroke-width="0.5" stroke-linecap="butt"/><path d="M284.1875,-30.14444v-19h44v19z" fill="#efefef" stroke="#404040" stroke-width="0.5" stroke-linecap="butt"/><path d="M328.1875,-30.14444v-19h44v19z" fill="#efefef" stroke="#404040" stroke-width="0.5" stroke-linecap="butt"/><path d="M372.35417,-30.14444v-19h44v19z" fill="#efefef" stroke="#404040" stroke-width="0.5" stroke-linecap="butt"/><path d="M63.64584,-49.05555v-19h44v19z" fill="#efefef" stroke="#404040" stroke-width="0.5" stroke-linecap="butt"/><path d="M107.8125,-49.05555v-19h44v19z" fill="#efefef" stroke="#404040" stroke-width="0.5" stroke-linecap="butt"/><path d="M151.8125,-49.05555v-19h44v19z" fill="#efefef" stroke="#404040" stroke-width="0.5" stroke-linecap="butt"/><path d="M195.97917,-49.05555v-19h44v19z" fill="#efefef" stroke="#404040" stroke-width="0.5" stroke-linecap="butt"/><path d="M63.64584,-67.94444v-19h44v19z" fill="#efefef" stroke="#404040" stroke-width="0.5" stroke-linecap="butt"/><path d="M107.8125,-67.94444v-19h44v19z" fill="#efefef" stroke="#404040" stroke-width="0.5" stroke-linecap="butt"/><path d="M151.8125,-67.94444v-19h44v19z" fill="#efefef" stroke="#404040" stroke-width="0.5" stroke-linecap="butt"/><path d="M195.97917,-67.94444v-19h44v19z" fill="#efefef" stroke="#404040" stroke-width="0.5" stroke-linecap="butt"/><path d="M240.02084,-49.05555v-19h44v19z" fill="#efefef" stroke="#404040" stroke-width="0.5" stroke-linecap="butt"/><path d="M284.1875,-49.05555v-19h44v19z" fill="#efefef" stroke="#404040" stroke-width="0.5" stroke-linecap="butt"/><path d="M328.1875,-49.05555v-19h44v19z" fill="#efefef" stroke="#404040" stroke-width="0.5" stroke-linecap="butt"/><path d="M372.35417,-49.05555v-19h44v19z" fill="#efefef" stroke="#404040" stroke-width="0.5" stroke-linecap="butt"/><path d="M240.02084,-67.94444v-19h44v19z" fill="#efefef" stroke="#404040" stroke-width="0.5" stroke-linecap="butt"/><path d="M284.1875,-67.94444v-19h44v19z" fill="#efefef" stroke="#404040" stroke-width="0.5" stroke-linecap="butt"/><path d="M328.1875,-67.94444v-19h44v19z" fill="#efefef" stroke="#404040" stroke-width="0.5" stroke-linecap="butt"/><path d="M372.35417,-67.94444v-19h44v19z" fill="#efefef" stroke="#404040" stroke-width="0.5" stroke-linecap="butt"/><path d="M63.6,140.2l-226.125,226.125" fill="none" stroke="#404040" stroke-width="0.5" stroke-linecap="round"/><path d="M63.6,140.2l-226.125,226.125" fill="none" stroke="#404040" stroke-width="0.5" stroke-linecap="round"/><path d="M107.6,140.2l-226.125,226.125" fill="none" stroke="#404040" stroke-width="0.5" stroke-linecap="round"/><path d="M107.6,140.2l-226.125,226.125" fill="none" stroke="#404040" stroke-width="0.5" stroke-linecap="round"/><path d="M151.85,140.2l-226.125,226.125" fill="none" stroke="#404040" stroke-width="0.5" stroke-linecap="round"/><path d="M151.85,140.2l-226.125,226.125" fill="none" stroke="#404040" stroke-width="0.5" stroke-linecap="round"/><path d="M195.85,140.2l-226.125,226.125" fill="none" stroke="#404040" stroke-width="0.5" stroke-linecap="round"/><path d="M195.85,140.2l-226.125,226.125" fill="none" stroke="#404040" stroke-width="0.5" stroke-linecap="round"/><path d="M63.6,140.2l-226.125,226.125" fill="none" stroke="#404040" stroke-width="0.5" stroke-linecap="round"/><path d="M63.6,140.2l-226.125,226.125" fill="none" stroke="#404040" stroke-width="0.5" stroke-linecap="round"/><path d="M107.6,140.2l-226.125,226.125" fill="none" stroke="#404040" stroke-width="0.5" stroke-linecap="round"/><path d="M107.6,140.2l-226.125,226.125" fill="none" stroke="#404040" stroke-width="0.5" stroke-linecap="round"/><path d="M151.85,140.2l-226.125,226.125" fill="none" stroke="#404040" stroke-width="0.5" stroke-linecap="round"/><path d="M151.85,140.2l-226.125,226.125" fill="none" stroke="#404040" stroke-width="0.5" stroke-linecap="round"/><path d="M195.85,140.2l-226.125,226.125" fill="none" stroke="#404040" stroke-width="0.5" stroke-linecap="round"/><path d="M195.85,140.2l-226.125,226.125" fill="none" stroke="#404040" stroke-width="0.5" stroke-linecap="round"/><path d="M240.1,140.2l-226.125,226.125" fill="none" stroke="#404040" stroke-width="0.5" stroke-linecap="round"/><path d="M240.1,140.2l-226.125,226.125" fill="none" stroke="#404040" stroke-width="0.5" stroke-linecap="round"/><path d="M284.1,140.2l-226.125,226.125" fill="none" stroke="#404040" stroke-width="0.5" stroke-linecap="round"/><path d="M284.1,140.2l-226.125,226.125" fill="none" stroke="#404040" stroke-width="0.5" stroke-linecap="round"/><path d="M328.35,140.2l-226.125,226.125" fill="none" stroke="#404040" stroke-width="0.5" stroke-linecap="round"/><path d="M328.35,140.2l-226.125,226.125" fill="none" stroke="#404040" stroke-width="0.5" stroke-linecap="round"/><path d="M372.35,140.2l-226.125,226.125" fill="none" stroke="#404040" stroke-width="0.5" stroke-linecap="round"/><path d="M372.35,140.2l-226.125,226.125" fill="none" stroke="#404040" stroke-width="0.5" stroke-linecap="round"/><path d="M416.35417,139.94445v-19h44v19z" fill="#efefef" stroke="#404040" stroke-width="0.5" stroke-linecap="butt"/><path d="M416.35417,121.05556v-19h44v19z" fill="#efefef" stroke="#404040" stroke-width="0.5" stroke-linecap="butt"/><path d="M416.35417,102.14445v-19h44v19z" fill="#efefef" stroke="#404040" stroke-width="0.5" stroke-linecap="butt"/><path d="M416.35417,83.25556v-19h44v19z" fill="#efefef" stroke="#404040" stroke-width="0.5" stroke-linecap="butt"/><path d="M416.35417,64.34444v-19h44v19z" fill="#efefef" stroke="#404040" stroke-width="0.5" stroke-linecap="butt"/><path d="M416.35417,45.45556v-19h44v19z" fill="#efefef" stroke="#404040" stroke-width="0.5" stroke-linecap="butt"/><path d="M416.35417,26.54445v-19h44v19z" fill="#efefef" stroke="#404040" stroke-width="0.5" stroke-linecap="butt"/><path d="M416.35417,7.65556v-19h44v19z" fill="#efefef" stroke="#404040" stroke-width="0.5" stroke-linecap="butt"/><path d="M416.35417,-11.25555v-19h44v19z" fill="#efefef" stroke="#404040" stroke-width="0.5" stroke-linecap="butt"/><path d="M416.35417,-30.14444v-19h44v19z" fill="#efefef" stroke="#404040" stroke-width="0.5" stroke-linecap="butt"/><path d="M416.35417,-49.05555v-19h44v19z" fill="#efefef" stroke="#404040" stroke-width="0.5" stroke-linecap="butt"/><path d="M416.35417,-67.94444v-19h44v19z" fill="#efefef" stroke="#404040" stroke-width="0.5" stroke-linecap="butt"/><path d="M19.64584,139.94445v-19h44v19z" fill="#efefef" stroke="#404040" stroke-width="0.5" stroke-linecap="butt"/><path d="M19.64584,121.05556v-19h44v19z" fill="#efefef" stroke="#404040" stroke-width="0.5" stroke-linecap="butt"/><path d="M19.64584,102.14445v-19h44v19z" fill="#efefef" stroke="#404040" stroke-width="0.5" stroke-linecap="butt"/><path d="M19.64584,83.25556v-19h44v19z" fill="#efefef" stroke="#404040" stroke-width="0.5" stroke-linecap="butt"/><path d="M19.64584,64.34444v-19h44v19z" fill="#efefef" stroke="#404040" stroke-width="0.5" stroke-linecap="butt"/><path d="M19.64584,45.45556v-19h44v19z" fill="#efefef" stroke="#404040" stroke-width="0.5" stroke-linecap="butt"/><path d="M19.64584,26.54445v-19h44v19z" fill="#efefef" stroke="#404040" stroke-width="0.5" stroke-linecap="butt"/><path d="M19.64584,7.65556v-19h44v19z" fill="#efefef" stroke="#404040" stroke-width="0.5" stroke-linecap="butt"/><path d="M19.64584,-11.25555v-19h44v19z" fill="#efefef" stroke="#404040" stroke-width="0.5" stroke-linecap="butt"/><path d="M19.64584,-30.14444v-19h44v19z" fill="#efefef" stroke="#404040" stroke-width="0.5" stroke-linecap="butt"/><path d="M19.64584,-49.05555v-19h44v19z" fill="#efefef" stroke="#404040" stroke-width="0.5" stroke-linecap="butt"/><path d="M19.64584,-67.94444v-19h44v19z" fill="#efefef" stroke="#404040" stroke-width="0.5" stroke-linecap="butt"/><path d="M-24.35416,139.94445v-19h44v19z" fill="#efefef" stroke="#404040" stroke-width="0.5" stroke-linecap="butt"/><path d="M-24.35416,121.05556v-19h44v19z" fill="#efefef" stroke="#404040" stroke-width="0.5" stroke-linecap="butt"/><path d="M-24.35416,102.14445v-19h44v19z" fill="#efefef" stroke="#404040" stroke-width="0.5" stroke-linecap="butt"/><path d="M-24.35416,83.25556v-19h44v19z" fill="#efefef" stroke="#404040" stroke-width="0.5" stroke-linecap="butt"/><path d="M-24.35416,64.34444v-19h44v19z" fill="#efefef" stroke="#404040" stroke-width="0.5" stroke-linecap="butt"/><path d="M-24.35416,45.45556v-19h44v19z" fill="#efefef" stroke="#404040" stroke-width="0.5" stroke-linecap="butt"/><path d="M-24.35416,26.54445v-19h44v19z" fill="#efefef" stroke="#404040" stroke-width="0.5" stroke-linecap="butt"/><path d="M-24.35416,7.65556v-19h44v19z" fill="#efefef" stroke="#404040" stroke-width="0.5" stroke-linecap="butt"/><path d="M-24.35416,-11.25555v-19h44v19z" fill="#efefef" stroke="#404040" stroke-width="0.5" stroke-linecap="butt"/><path d="M-24.35416,-30.14444v-19h44v19z" fill="#efefef" stroke="#404040" stroke-width="0.5" stroke-linecap="butt"/><path d="M-24.35416,-49.05555v-19h44v19z" fill="#efefef" stroke="#404040" stroke-width="0.5" stroke-linecap="butt"/><path d="M-24.35416,-67.94444v-19h44v19z" fill="#efefef" stroke="#404040" stroke-width="0.5" stroke-linecap="butt"/><path d="M460.55417,139.94445v-19h44v19z" fill="#efefef" stroke="#404040" stroke-width="0.5" stroke-linecap="butt"/><path d="M460.55417,121.05556v-19h44v19z" fill="#efefef" stroke="#404040" stroke-width="0.5" stroke-linecap="butt"/><path d="M460.55417,102.14445v-19h44v19z" fill="#efefef" stroke="#404040" stroke-width="0.5" stroke-linecap="butt"/><path d="M460.55417,83.25556v-19h44v19z" fill="#efefef" stroke="#404040" stroke-width="0.5" stroke-linecap="butt"/><path d="M460.55417,64.34444v-19h44v19z" fill="#efefef" stroke="#404040" stroke-width="0.5" stroke-linecap="butt"/><path d="M460.55417,45.45556v-19h44v19z" fill="#efefef" stroke="#404040" stroke-width="0.5" stroke-linecap="butt"/><path d="M460.55417,26.54445v-19h44v19z" fill="#efefef" stroke="#404040" stroke-width="0.5" stroke-linecap="butt"/><path d="M460.55417,7.65556v-19h44v19z" fill="#efefef" stroke="#404040" stroke-width="0.5" stroke-linecap="butt"/><path d="M460.55417,-11.25555v-19h44v19z" fill="#efefef" stroke="#404040" stroke-width="0.5" stroke-linecap="butt"/><path d="M460.55417,-30.14444v-19h44v19z" fill="#efefef" stroke="#404040" stroke-width="0.5" stroke-linecap="butt"/><path d="M460.55417,-49.05555v-19h44v19z" fill="#efefef" stroke="#404040" stroke-width="0.5" stroke-linecap="butt"/><path d="M460.55417,-67.94444v-19h44v19z" fill="#efefef" stroke="#404040" stroke-width="0.5" stroke-linecap="butt"/><path d="M416.35,140.2l-226.125,226.125" fill="none" stroke="#404040" stroke-width="0.5" stroke-linecap="round"/><path d="M416.35,140.2l-226.125,226.125" fill="none" stroke="#404040" stroke-width="0.5" stroke-linecap="round"/><path d="M460.6,140.2l-226.125,226.125" fill="none" stroke="#404040" stroke-width="0.5" stroke-linecap="round"/><path d="M460.6,140.2l-226.125,226.125" fill="none" stroke="#404040" stroke-width="0.5" stroke-linecap="round"/><path d="M504.6,140.2l-226.125,226.125" fill="none" stroke="#404040" stroke-width="0.5" stroke-linecap="round"/><path d="M504.6,140.2l-226.125,226.125" fill="none" stroke="#404040" stroke-width="0.5" stroke-linecap="round"/><path d="M19.6,140.2l-226.125,226.125" fill="none" stroke="#404040" stroke-width="0.5" stroke-linecap="round"/><path d="M19.6,140.2l-226.125,226.125" fill="none" stroke="#404040" stroke-width="0.5" stroke-linecap="round"/><path d="M19.6,140.2l-226.125,226.125" fill="none" stroke="#404040" stroke-width="0.5" stroke-linecap="round"/><path d="M19.6,140.2l-226.125,226.125" fill="none" stroke="#404040" stroke-width="0.5" stroke-linecap="round"/><path d="M504.55417,139.94445v-19h44v19z" fill="#efefef" stroke="#404040" stroke-width="0.5" stroke-linecap="butt"/><path d="M504.55417,121.05556v-19h44v19z" fill="#efefef" stroke="#404040" stroke-width="0.5" stroke-linecap="butt"/><path d="M504.55417,102.14445v-19h44v19z" fill="#efefef" stroke="#404040" stroke-width="0.5" stroke-linecap="butt"/><path d="M504.55417,83.25556v-19h44v19z" fill="#efefef" stroke="#404040" stroke-width="0.5" stroke-linecap="butt"/><path d="M504.55417,64.34444v-19h44v19z" fill="#efefef" stroke="#404040" stroke-width="0.5" stroke-linecap="butt"/><path d="M504.55417,45.45556v-19h44v19z" fill="#efefef" stroke="#404040" stroke-width="0.5" stroke-linecap="butt"/><path d="M504.55417,26.54445v-19h44v19z" fill="#efefef" stroke="#404040" stroke-width="0.5" stroke-linecap="butt"/><path d="M504.55417,7.65556v-19h44v19z" fill="#efefef" stroke="#404040" stroke-width="0.5" stroke-linecap="butt"/><path d="M504.55417,-11.25555v-19h44v19z" fill="#efefef" stroke="#404040" stroke-width="0.5" stroke-linecap="butt"/><path d="M504.55417,-30.14444v-19h44v19z" fill="#efefef" stroke="#404040" stroke-width="0.5" stroke-linecap="butt"/><path d="M504.55417,-49.05555v-19h44v19z" fill="#efefef" stroke="#404040" stroke-width="0.5" stroke-linecap="butt"/><path d="M504.55417,-67.94444v-19h44v19z" fill="#efefef" stroke="#404040" stroke-width="0.5" stroke-linecap="butt"/><path d="M548.6,140.2l-226.125,226.125" fill="none" stroke="#404040" stroke-width="0.5" stroke-linecap="round"/><path d="M548.6,140.2l-226.125,226.125" fill="none" stroke="#404040" stroke-width="0.5" stroke-linecap="round"/><path d="M548.75416,139.94445v-19h44v19z" fill="#efefef" stroke="#404040" stroke-width="0.5" stroke-linecap="butt"/><path d="M548.75416,121.05556v-19h44v19z" fill="#efefef" stroke="#404040" stroke-width="0.5" stroke-linecap="butt"/><path d="M548.75416,102.14445v-19h44v19z" fill="#efefef" stroke="#404040" stroke-width="0.5" stroke-linecap="butt"/><path d="M548.75416,83.25556v-19h44v19z" fill="#efefef" stroke="#404040" stroke-width="0.5" stroke-linecap="butt"/><path d="M548.75416,64.34444v-19h44v19z" fill="#efefef" stroke="#404040" stroke-width="0.5" stroke-linecap="butt"/><path d="M548.75416,45.45556v-19h44v19z" fill="#efefef" stroke="#404040" stroke-width="0.5" stroke-linecap="butt"/><path d="M548.75416,26.54445v-19h44v19z" fill="#efefef" stroke="#404040" stroke-width="0.5" stroke-linecap="butt"/><path d="M548.75416,7.65556v-19h44v19z" fill="#efefef" stroke="#404040" stroke-width="0.5" stroke-linecap="butt"/><path d="M548.75416,-11.25555v-19h44v19z" fill="#efefef" stroke="#404040" stroke-width="0.5" stroke-linecap="butt"/><path d="M548.75416,-30.14444v-19h44v19z" fill="#efefef" stroke="#404040" stroke-width="0.5" stroke-linecap="butt"/><path d="M548.75416,-49.05555v-19h44v19z" fill="#efefef" stroke="#404040" stroke-width="0.5" stroke-linecap="butt"/><path d="M548.75416,-67.94444v-19h44v19z" fill="#efefef" stroke="#404040" stroke-width="0.5" stroke-linecap="butt"/><path d="M592.8,140.2l-226.125,226.125" fill="none" stroke="#404040" stroke-width="0.5" stroke-linecap="round"/><path d="M592.8,140.2l-226.125,226.125" fill="none" stroke="#404040" stroke-width="0.5" stroke-linecap="round"/><path d="M592.75416,139.94445v-19h44v19z" fill="#efefef" stroke="#404040" stroke-width="0.5" stroke-linecap="butt"/><path d="M592.75416,121.05556v-19h44v19z" fill="#efefef" stroke="#404040" stroke-width="0.5" stroke-linecap="butt"/><path d="M592.75416,102.14445v-19h44v19z" fill="#efefef" stroke="#404040" stroke-width="0.5" stroke-linecap="butt"/><path d="M592.75416,83.25556v-19h44v19z" fill="#efefef" stroke="#404040" stroke-width="0.5" stroke-linecap="butt"/><path d="M592.75416,64.34444v-19h44v19z" fill="#efefef" stroke="#404040" stroke-width="0.5" stroke-linecap="butt"/><path d="M592.75416,45.45556v-19h44v19z" fill="#efefef" stroke="#404040" stroke-width="0.5" stroke-linecap="butt"/><path d="M592.75416,26.54445v-19h44v19z" fill="#efefef" stroke="#404040" stroke-width="0.5" stroke-linecap="butt"/><path d="M592.75416,7.65556v-19h44v19z" fill="#efefef" stroke="#404040" stroke-width="0.5" stroke-linecap="butt"/><path d="M592.75416,-11.25555v-19h44v19z" fill="#efefef" stroke="#404040" stroke-width="0.5" stroke-linecap="butt"/><path d="M592.75416,-30.14444v-19h44v19z" fill="#efefef" stroke="#404040" stroke-width="0.5" stroke-linecap="butt"/><path d="M592.75416,-49.05555v-19h44v19z" fill="#efefef" stroke="#404040" stroke-width="0.5" stroke-linecap="butt"/><path d="M592.75416,-67.94444v-19h44v19z" fill="#efefef" stroke="#404040" stroke-width="0.5" stroke-linecap="butt"/><path d="M636.8,140.2l-226.125,226.125" fill="none" stroke="#404040" stroke-width="0.5" stroke-linecap="round"/><path d="M636.8,140.2l-226.125,226.125" fill="none" stroke="#404040" stroke-width="0.5" stroke-linecap="round"/><path d="M636.8,140.2l-226.125,226.125" fill="none" stroke="#404040" stroke-width="0.5" stroke-linecap="round"/><path d="M680.8,140.2l-226.125,226.125" fill="none" stroke="#404040" stroke-width="0.5" stroke-linecap="round"/><path d="M680.8,140.2l-226.125,226.125" fill="none" stroke="#404040" stroke-width="0.5" stroke-linecap="round"/><path d="M0.92857,159.11885h599.5" fill="none" stroke="#404040" stroke-width="0.5" stroke-linecap="round"/><path d="M0.92857,180.11885h599.5" fill="none" stroke="#404040" stroke-width="0.5" stroke-linecap="round"/><path d="M0.92857,201.45219h599.5" fill="none" stroke="#404040" stroke-width="0.5" stroke-linecap="round"/><path d="M0.92857,222.45219h599.5" fill="none" stroke="#404040" stroke-width="0.5" stroke-linecap="round"/><path d="M0.92857,244.28552h599.5" fill="none" stroke="#404040" stroke-width="0.5" stroke-linecap="round"/><path d="M0.92857,265.28552h599.5" fill="none" stroke="#404040" stroke-width="0.5" stroke-linecap="round"/><path d="M0.92857,287.78552h599.5" fill="none" stroke="#404040" stroke-width="0.5" stroke-linecap="round"/><path d="M0.92857,308.78552h599.5" fill="none" stroke="#404040" stroke-width="0.5" stroke-linecap="round"/><path d="M0.92857,330.03552h599.5" fill="none" stroke="#404040" stroke-width="0.5" stroke-linecap="round"/><path d="M0.92857,351.03552h599.5" fill="none" stroke="#404040" stroke-width="0.5" stroke-linecap="round"/></g></g></svg>