<svg version="1.1" xmlns="http://www.w3.org/2000/svg" xmlns:xlink="http://www.w3.org/1999/xlink" width="799.325" height="454.39444" viewBox="0,0,799.325,454.39444"><g transform="translate(188.0125,65.06736)"><g data-paper-data="{&quot;isPaintingLayer&quot;:true}" fill-rule="nonzero" stroke="#404040" stroke-linejoin="miter" stroke-miterlimit="10" stroke-dasharray="" stroke-dashoffset="0" style="mix-blend-mode: normal"><path d="M-5.9875,388.81736v-232h485.2v232z" fill="#e2e2e2" stroke-width="0" stroke-linecap="butt"/><path d="M38.15834,162.07153v-19h44v19z" fill="#efefef" stroke-width="0.5" stroke-linecap="butt"/><path d="M82.325,162.07153v-19h44v19z" fill="#efefef" stroke-width="0.5" stroke-linecap="butt"/><path d="M126.325,162.07153v-19h44v19z" fill="#efefef" stroke-width="0.5" stroke-linecap="butt"/><path d="M170.49167,162.07153v-19h44v19z" fill="#efefef" stroke-width="0.5" stroke-linecap="butt"/><path d="M38.15834,143.18264v-19h44v19z" fill="#efefef" stroke-width="0.5" stroke-linecap="butt"/><path d="M82.325,143.18264v-19h44v19z" fill="#efefef" stroke-width="0.5" stroke-linecap="butt"/><path d="M126.325,143.18264v-19h44v19z" fill="#efefef" stroke-width="0.5" stroke-linecap="butt"/><path d="M170.49167,143.18264v-19h44v19z" fill="#efefef" stroke-width="0.5" stroke-linecap="butt"/><path d="M214.53334,162.07153v-19h44v19z" fill="#efefef" stroke-width="0.5" stroke-linecap="butt"/><path d="M258.7,162.07153v-19h44v19z" fill="#efefef" stroke-width="0.5" stroke-linecap="butt"/><path d="M302.7,162.07153v-19h44v19z" fill="#efefef" stroke-width="0.5" stroke-linecap="butt"/><path d="M346.86667,162.07153v-19h44v19z" fill="#efefef" stroke-width="0.5" stroke-linecap="butt"/><path d="M214.53334,143.18264v-19h44v19z" fill="#efefef" stroke-width="0.5" stroke-linecap="butt"/><path d="M258.7,143.18264v-19h44v19z" fill="#efefef" stroke-width="0.5" stroke-linecap="butt"/><path d="M302.7,143.18264v-19h44v19z" fill="#efefef" stroke-width="0.5" stroke-linecap="butt"/><path d="M346.86667,143.18264v-19h44v19z" fill="#efefef" stroke-width="0.5" stroke-linecap="butt"/><path d="M38.15834,124.27153v-19h44v19z" fill="#efefef" stroke-width="0.5" stroke-linecap="butt"/><path d="M82.325,124.27153v-19h44v19z" fill="#efefef" stroke-width="0.5" stroke-linecap="butt"/><path d="M126.325,124.27153v-19h44v19z" fill="#efefef" stroke-width="0.5" stroke-linecap="butt"/><path d="M170.49167,124.27153v-19h44v19z" fill="#efefef" stroke-width="0.5" stroke-linecap="butt"/><path d="M38.15834,105.38264v-19h44v19z" fill="#efefef" stroke-width="0.5" stroke-linecap="butt"/><path d="M82.325,105.38264v-19h44v19z" fill="#efefef" stroke-width="0.5" stroke-linecap="butt"/><path d="M126.325,105.38264v-19h44v19z" fill="#efefef" stroke-width="0.5" stroke-linecap="butt"/><path d="M170.49167,105.38264v-19h44v19z" fill="#efefef" stroke-width="0.5" stroke-linecap="butt"/><path d="M214.53334,124.27153v-19h44v19z" fill="#efefef" stroke-width="0.5" stroke-linecap="butt"/><path d="M258.7,124.27153v-19h44v19z" fill="#efefef" stroke-width="0.5" stroke-linecap="butt"/><path d="M302.7,124.27153v-19h44v19z" fill="#efefef" stroke-width="0.5" stroke-linecap="butt"/><path d="M346.86667,124.27153v-19h44v19z" fill="#efefef" stroke-width="0.5" stroke-linecap="butt"/><path d="M214.53334,105.38264v-19h44v19z" fill="#efefef" stroke-width="0.5" stroke-linecap="butt"/><path d="M258.7,105.38264v-19h44v19z" fill="#efefef" stroke-width="0.5" stroke-linecap="butt"/><path d="M302.7,105.38264v-19h44v19z" fill="#efefef" stroke-width="0.5" stroke-linecap="butt"/><path d="M346.86667,105.38264v-19h44v19z" fill="#efefef" stroke-width="0.5" stroke-linecap="butt"/><path d="M38.15834,86.47153v-19h44v19z" fill="#efefef" stroke-width="0.5" stroke-linecap="butt"/><path d="M82.325,86.47153v-19h44v19z" fill="#efefef" stroke-width="0.5" stroke-linecap="butt"/><path d="M126.325,86.47153v-19h44v19z" fill="#efefef" stroke-width="0.5" stroke-linecap="butt"/><path d="M170.49167,86.47153v-19h44v19z" fill="#efefef" stroke-width="0.5" stroke-linecap="butt"/><path d="M38.15834,67.58264v-19h44v19z" fill="#efefef" stroke-width="0.5" stroke-linecap="butt"/><path d="M82.325,67.58264v-19h44v19z" fill="#efefef" stroke-width="0.5" stroke-linecap="butt"/><path d="M126.325,67.58264v-19h44v19z" fill="#efefef" stroke-width="0.5" stroke-linecap="butt"/><path d="M170.49167,67.58264v-19h44v19z" fill="#efefef" stroke-width="0.5" stroke-linecap="butt"/><path d="M214.53334,86.47153v-19h44v19z" fill="#efefef" stroke-width="0.5" stroke-linecap="butt"/><path d="M258.7,86.47153v-19h44v19z" fill="#efefef" stroke-width="0.5" stroke-linecap="butt"/><path d="M302.7,86.47153v-19h44v19z" fill="#efefef" stroke-width="0.5" stroke-linecap="butt"/><path d="M346.86667,86.47153v-19h44v19z" fill="#efefef" stroke-width="0.5" stroke-linecap="butt"/><path d="M214.53334,67.58264v-19h44v19z" fill="#efefef" stroke-width="0.5" stroke-linecap="butt"/><path d="M258.7,67.58264v-19h44v19z" fill="#efefef" stroke-width="0.5" stroke-linecap="butt"/><path d="M302.7,67.58264v-19h44v19z" fill="#efefef" stroke-width="0.5" stroke-linecap="butt"/><path d="M346.86667,67.58264v-19h44v19z" fill="#efefef" stroke-width="0.5" stroke-linecap="butt"/><path d="M38.15834,48.67153v-19h44v19z" fill="#efefef" stroke-width="0.5" stroke-linecap="butt"/><path d="M82.325,48.67153v-19h44v19z" fill="#efefef" stroke-width="0.5" stroke-linecap="butt"/><path d="M126.325,48.67153v-19h44v19z" fill="#efefef" stroke-width="0.5" stroke-linecap="butt"/><path d="M170.49167,48.67153v-19h44v19z" fill="#efefef" stroke-width="0.5" stroke-linecap="butt"/><path d="M38.15834,29.78264v-19h44v19z" fill="#efefef" stroke-width="0.5" stroke-linecap="butt"/><path d="M82.325,29.78264v-19h44v19z" fill="#efefef" stroke-width="0.5" stroke-linecap="butt"/><path d="M126.325,29.78264v-19h44v19z" fill="#efefef" stroke-width="0.5" stroke-linecap="butt"/><path d="M170.49167,29.78264v-19h44v19z" fill="#efefef" stroke-width="0.5" stroke-linecap="butt"/><path d="M214.53334,48.67153v-19h44v19z" fill="#efefef" stroke-width="0.5" stroke-linecap="butt"/><path d="M258.7,48.67153v-19h44v19z" fill="#efefef" stroke-width="0.5" stroke-linecap="butt"/><path d="M302.7,48.67153v-19h44v19z" fill="#efefef" stroke-width="0.5" stroke-linecap="butt"/><path d="M346.86667,48.67153v-19h44v19z" fill="#efefef" stroke-width="0.5" stroke-linecap="butt"/><path d="M214.53334,29.78264v-19h44v19z" fill="#efefef" stroke-width="0.5" stroke-linecap="butt"/><path d="M258.7,29.78264v-19h44v19z" fill="#efefef" stroke-width="0.5" stroke-linecap="butt"/><path d="M302.7,29.78264v-19h44v19z" fill="#efefef" stroke-width="0.5" stroke-linecap="butt"/><path d="M346.86667,29.78264v-19h44v19z" fill="#efefef" stroke-width="0.5" stroke-linecap="butt"/><path d="M38.15834,10.87153v-19h44v19z" fill="#efefef" stroke-width="0.5" stroke-linecap="butt"/><path d="M82.325,10.87153v-19h44v19z" fill="#efefef" stroke-width="0.5" stroke-linecap="butt"/><path d="M126.325,10.87153v-19h44v19z" fill="#efefef" stroke-width="0.5" stroke-linecap="butt"/><path d="M170.49167,10.87153v-19h44v19z" fill="#efefef" stroke-width="0.5" stroke-linecap="butt"/><path d="M38.15834,-8.01736v-19h44v19z" fill="#efefef" stroke-width="0.5" stroke-linecap="butt"/><path d="M82.325,-8.01736v-19h44v19z" fill="#efefef" stroke-width="0.5" stroke-linecap="butt"/><path d="M126.325,-8.01736v-19h44v19z" fill="#efefef" stroke-width="0.5" stroke-linecap="butt"/><path d="M170.49167,-8.01736v-19h44v19z" fill="#efefef" stroke-width="0.5" stroke-linecap="butt"/><path d="M214.53334,10.87153v-19h44v19z" fill="#efefef" stroke-width="0.5" stroke-linecap="butt"/><path d="M258.7,10.87153v-19h44v19z" fill="#efefef" stroke-width="0.5" stroke-linecap="butt"/><path d="M302.7,10.87153v-19h44v19z" fill="#efefef" stroke-width="0.5" stroke-linecap="butt"/><path d="M346.86667,10.87153v-19h44v19z" fill="#efefef" stroke-width="0.5" stroke-linecap="butt"/><path d="M214.53334,-8.01736v-19h44v19z" fill="#efefef" stroke-width="0.5" stroke-linecap="butt"/><path d="M258.7,-8.01736v-19h44v19z" fill="#efefef" stroke-width="0.5" stroke-linecap="butt"/><path d="M302.7,-8.01736v-19h44v19z" fill="#efefef" stroke-width="0.5" stroke-linecap="butt"/><path d="M346.86667,-8.01736v-19h44v19z" fill="#efefef" stroke-width="0.5" stroke-linecap="butt"/><path d="M38.15834,-26.92847v-19h44v19z" fill="#efefef" stroke-width="0.5" stroke-linecap="butt"/><path d="M82.325,-26.92847v-19h44v19z" fill="#efefef" stroke-width="0.5" stroke-linecap="butt"/><path d="M126.325,-26.92847v-19h44v19z" fill="#efefef" stroke-width="0.5" stroke-linecap="butt"/><path d="M170.49167,-26.92847v-19h44v19z" fill="#efefef" stroke-width="0.5" stroke-linecap="butt"/><path d="M38.15834,-45.81736v-19h44v19z" fill="#efefef" stroke-width="0.5" stroke-linecap="butt"/><path d="M82.325,-45.81736v-19h44v19z" fill="#efefef" stroke-width="0.5" stroke-linecap="butt"/><path d="M126.325,-45.81736v-19h44v19z" fill="#efefef" stroke-width="0.5" stroke-linecap="butt"/><path d="M170.49167,-45.81736v-19h44v19z" fill="#efefef" stroke-width="0.5" stroke-linecap="butt"/><path d="M214.53334,-26.92847v-19h44v19z" fill="#efefef" stroke-width="0.5" stroke-linecap="butt"/><path d="M258.7,-26.92847v-19h44v19z" fill="#efefef" stroke-width="0.5" stroke-linecap="butt"/><path d="M302.7,-26.92847v-19h44v19z" fill="#efefef" stroke-width="0.5" stroke-linecap="butt"/><path d="M346.86667,-26.92847v-19h44v19z" fill="#efefef" stroke-width="0.5" stroke-linecap="butt"/><path d="M214.53334,-45.81736v-19h44v19z" fill="#efefef" stroke-width="0.5" stroke-linecap="butt"/><path d="M258.7,-45.81736v-19h44v19z" fill="#efefef" stroke-width="0.5" stroke-linecap="butt"/><path d="M302.7,-45.81736v-19h44v19z" fill="#efefef" stroke-width="0.5" stroke-linecap="butt"/><path d="M346.86667,-45.81736v-19h44v19z" fill="#efefef" stroke-width="0.5" stroke-linecap="butt"/><path d="M38.27917,161.82708l-44.51388,44.51389" fill="none" stroke-width="0.5" stroke-linecap="round"/><path d="M-188.0125,388.45208" fill="none" stroke-width="0.5" stroke-linecap="round"/><path d="M82.26635,162.17324l-88.27884,88.27884" fill="none" stroke-width="0.5" stroke-linecap="round"/><path d="M126.3625,162.32708l-132.18055,132.18056" fill="none" stroke-width="0.5" stroke-linecap="round"/><path d="M126.3625,162.32708" fill="none" stroke-width="0.5" stroke-linecap="round"/><path d="M170.3625,162.32708l-176.06944,176.06945" fill="none" stroke-width="0.5" stroke-linecap="round"/><path d="M214.6125,162.32708l-220.625,220.625" fill="none" stroke-width="0.5" stroke-linecap="round"/><path d="M214.6125,162.32708" fill="none" stroke-width="0.5" stroke-linecap="round"/><path d="M258.6125,162.32708l-226.125,226.125" fill="none" stroke-width="0.5" stroke-linecap="round"/><path d="M302.8625,162.32708l-226.125,226.125" fill="none" stroke-width="0.5" stroke-linecap="round"/><path d="M346.8625,162.32708l-226.125,226.125" fill="none" stroke-width="0.5" stroke-linecap="round"/><path d="M390.86667,162.07153v-19h44v19z" fill="#efefef" stroke-width="0.5" stroke-linecap="butt"/><path d="M390.86667,143.18264v-19h44v19z" fill="#efefef" stroke-width="0.5" stroke-linecap="butt"/><path d="M390.86667,124.27153v-19h44v19z" fill="#efefef" stroke-width="0.5" stroke-linecap="butt"/><path d="M390.86667,105.38264v-19h44v19z" fill="#efefef" stroke-width="0.5" stroke-linecap="butt"/><path d="M390.86667,86.47153v-19h44v19z" fill="#efefef" stroke-width="0.5" stroke-linecap="butt"/><path d="M390.86667,67.58264v-19h44v19z" fill="#efefef" stroke-width="0.5" stroke-linecap="butt"/><path d="M390.86667,48.67153v-19h44v19z" fill="#efefef" stroke-width="0.5" stroke-linecap="butt"/><path d="M390.86667,29.78264v-19h44v19z" fill="#efefef" stroke-width="0.5" stroke-linecap="butt"/><path d="M390.86667,10.87153v-19h44v19z" fill="#efefef" stroke-width="0.5" stroke-linecap="butt"/><path d="M390.86667,-8.01736v-19h44v19z" fill="#efefef" stroke-width="0.5" stroke-linecap="butt"/><path d="M390.86667,-26.92847v-19h44v19z" fill="#efefef" stroke-width="0.5" stroke-linecap="butt"/><path d="M390.86667,-45.81736v-19h44v19z" fill="#efefef" stroke-width="0.5" stroke-linecap="butt"/><path d="M-5.84166,162.07153v-19h44v19z" fill="#efefef" stroke-width="0.5" stroke-linecap="butt"/><path d="M-5.84166,143.18264v-19h44v19z" fill="#efefef" stroke-width="0.5" stroke-linecap="butt"/><path d="M-5.84166,124.27153v-19h44v19z" fill="#efefef" stroke-width="0.5" stroke-linecap="butt"/><path d="M-5.84166,105.38264v-19h44v19z" fill="#efefef" stroke-width="0.5" stroke-linecap="butt"/><path d="M-5.84166,86.47153v-19h44v19z" fill="#efefef" stroke-width="0.5" stroke-linecap="butt"/><path d="M-5.84166,67.58264v-19h44v19z" fill="#efefef" stroke-width="0.5" stroke-linecap="butt"/><path d="M-5.84166,48.67153v-19h44v19z" fill="#efefef" stroke-width="0.5" stroke-linecap="butt"/><path d="M-5.84166,29.78264v-19h44v19z" fill="#efefef" stroke-width="0.5" stroke-linecap="butt"/><path d="M-5.84166,10.87153v-19h44v19z" fill="#efefef" stroke-width="0.5" stroke-linecap="butt"/><path d="M-5.84166,-8.01736v-19h44v19z" fill="#efefef" stroke-width="0.5" stroke-linecap="butt"/><path d="M-5.84166,-26.92847v-19h44v19z" fill="#efefef" stroke-width="0.5" stroke-linecap="butt"/><path d="M-5.84166,-45.81736v-19h44v19z" fill="#efefef" stroke-width="0.5" stroke-linecap="butt"/><path d="M435.06667,162.07153v-19h44v19z" fill="#efefef" stroke-width="0.5" stroke-linecap="butt"/><path d="M435.06667,143.18264v-19h44v19z" fill="#efefef" stroke-width="0.5" stroke-linecap="butt"/><path d="M435.06667,124.27153v-19h44v19z" fill="#efefef" stroke-width="0.5" stroke-linecap="butt"/><path d="M435.06667,105.38264v-19h44v19z" fill="#efefef" stroke-width="0.5" stroke-linecap="butt"/><path d="M435.06667,86.47153v-19h44v19z" fill="#efefef" stroke-width="0.5" stroke-linecap="butt"/><path d="M435.06667,67.58264v-19h44v19z" fill="#efefef" stroke-width="0.5" stroke-linecap="butt"/><path d="M435.06667,48.67153v-19h44v19z" fill="#efefef" stroke-width="0.5" stroke-linecap="butt"/><path d="M435.06667,29.78264v-19h44v19z" fill="#efefef" stroke-width="0.5" stroke-linecap="butt"/><path d="M435.06667,10.87153v-19h44v19z" fill="#efefef" stroke-width="0.5" stroke-linecap="butt"/><path d="M435.06667,-8.01736v-19h44v19z" fill="#efefef" stroke-width="0.5" stroke-linecap="butt"/><path d="M435.06667,-26.92847v-19h44v19z" fill="#efefef" stroke-width="0.5" stroke-linecap="butt"/><path d="M435.06667,-45.81736v-19h44v19z" fill="#efefef" stroke-width="0.5" stroke-linecap="butt"/><path d="M390.8625,162.32708l-226.125,226.125" fill="none" stroke-width="0.5" stroke-linecap="round"/><path d="M435.1125,162.32708l-226.125,226.125" fill="none" stroke-width="0.5" stroke-linecap="round"/><path d="M479.1125,162.32708l-226.125,226.125" fill="none" stroke-width="0.5" stroke-linecap="round"/><path d="M479.1125,206.32708l-182.125,182.125" fill="none" stroke-width="0.5" stroke-linecap="round"/><path d="M479.1875,250.45208l-138,138" fill="none" stroke-width="0.5" stroke-linecap="round"/><path d="M479.1875,294.45208l-94.625,94.625" fill="none" stroke-width="0.5" stroke-linecap="round"/><path d="M611.3125,162.32708" fill="none" stroke-width="0.5" stroke-linecap="round"/><path d="M479.0625,338.57708l-50.125,50.125" fill="none" stroke-width="0.5" stroke-linecap="round"/><path d="M-6.11448,181.24593h484.85556" fill="none" stroke-width="0.5" stroke-linecap="round"/><path d="M-5.89226,202.24593h485.03334" fill="none" stroke-width="0.5" stroke-linecap="round"/><path d="M479.14107,223.57927h-484.92222" fill="none" stroke-width="0.5" stroke-linecap="round"/><path d="M-6.00337,244.57927h485.14445" fill="none" stroke-width="0.5" stroke-linecap="round"/><path d="M-6.11448,266.4126h485.25556" fill="none" stroke-width="0.5" stroke-linecap="round"/><path d="M-5.78115,287.4126h485.12222" fill="none" stroke-width="0.5" stroke-linecap="round"/><path d="M-5.78115,309.9126h484.92222" fill="none" stroke-width="0.5" stroke-linecap="round"/><path d="M-6.00337,330.9126h485.14445" fill="none" stroke-width="0.5" stroke-linecap="round"/><path d="M479.14107,352.1626h-485.25555" fill="none" stroke-width="0.5" stroke-linecap="round"/><path d="M478.94107,373.1626h-484.83333" fill="none" stroke-width="0.5" stroke-linecap="round"/></g></g></svg>